<svg xmlns="http://www.w3.org/2000/svg" id="Layer_1" viewBox="0 0 512 512"><defs><style>      .cls-1 {        fill: #fff;      }      .cls-2 {        fill: #ea255a;      }    </style></defs><path class="cls-2" d="M261.86.03c19.62.12,39.13,1.53,58.57,4.39,25.49,3.74,50.26,9.93,74.05,19.94,13.5,5.68,26.21,12.71,38.01,21.34,14.79,10.82,27.02,24.05,37.17,39.3,8.84,13.29,15.94,27.47,21.73,42.26,6.08,15.54,10.49,31.64,13.76,48.01,4.31,21.6,6.69,43.46,6.84,65.46.12,17.9-.38,35.85-1.5,53.71-1.69,27.04-6.98,53.47-15.66,79.2-5.81,17.22-13.09,33.72-22.81,49.14-8.74,13.86-18.84,26.47-31.29,37.25-11.27,9.75-23.76,17.66-37.06,24.07-22.85,11.02-47.1,18.04-72.1,22.27-21.67,3.67-43.52,5.5-65.53,5.61-20.04.1-40.07,0-59.96-2.49-13.31-1.67-26.62-3.74-39.7-6.66-12.77-2.85-25.52-6.27-37.79-10.79-12.32-4.53-24.24-10.14-35.62-16.99-12.41-7.47-23.66-16.13-33.6-26.56-11.62-12.18-20.86-26.05-28.5-40.98-8.24-16.09-14.61-32.94-19.19-50.42-2.94-11.24-5.38-22.62-7.18-34.1-.91-5.77-1.65-11.56-2.22-17.37-.56-5.69-.78-11.41-1.53-17.08C-.02,282.77,0,277.11,0,271.31s0-12.02,0-18.04c0-4.74.02-9.48,0-14.22-.01-2.16.05-4.25.32-6.4.4-3.18.42-6.32.66-9.5.26-3.38.64-6.76.96-10.14.55-5.86,1.22-11.71,2.03-17.55,1.33-9.52,3.05-18.99,5.21-28.35,6.44-27.91,16.24-54.42,31.56-78.85,7.2-11.47,15.5-22.05,25.11-31.34,12.49-12.08,27.13-21.57,42.87-29.05,23.59-11.21,48.57-18.25,74.26-22.53C205.38,1.62,227.97-.25,250.7.03"></path><path class="cls-1" d="M336.88,274.9c-7.05-8.84-17.04-15.34-29.93-19.53,11.28-4.68,20.1-11.35,26.43-20.01,7.58-10.38,11.38-23.39,11.38-39.03,0-20.76-7.06-37.1-21.18-49-14.12-11.9-33.54-17.85-58.27-17.85h-96.6v253.05h100.1c16.56,0,30.92-2.68,43.05-8.05,12.13-5.37,21.4-13.12,27.83-23.28,6.42-10.15,9.62-22.22,9.62-36.22,0-16.33-4.15-29.69-12.42-40.08ZM263.2,159.92c14.93,0,26.43,3.45,34.48,10.33,8.05,6.89,12.08,16.62,12.08,29.23,0,13.3-3.85,23.57-11.55,30.8-7.7,7.24-18.67,10.85-32.9,10.85h-62.3v-81.2h60.2ZM302.05,341.23c-7.94,7.24-19.25,10.85-33.95,10.85h-65.1v-81.2h65.1c14.47,0,25.73,3.5,33.78,10.5,8.05,7,12.07,16.8,12.07,29.4s-3.97,23.22-11.9,30.45Z"></path></svg>