<svg xmlns="http://www.w3.org/2000/svg" id="Layer_1" viewBox="0 0 512 512"><defs><style>      .cls-1 {        fill: #fff;      }      .cls-2 {        fill: #36b6df;      }    </style></defs><path class="cls-2" d="M261.86.03c19.62.12,39.13,1.53,58.57,4.39,25.49,3.74,50.26,9.93,74.05,19.94,13.5,5.68,26.21,12.71,38.01,21.34,14.79,10.82,27.02,24.05,37.17,39.3,8.84,13.29,15.94,27.47,21.73,42.26,6.08,15.54,10.49,31.64,13.76,48.01,4.31,21.6,6.69,43.46,6.84,65.46.12,17.9-.38,35.85-1.5,53.71-1.69,27.04-6.98,53.47-15.66,79.2-5.81,17.22-13.09,33.72-22.81,49.14-8.74,13.86-18.84,26.47-31.29,37.25-11.27,9.75-23.76,17.66-37.06,24.07-22.85,11.02-47.1,18.04-72.1,22.27-21.67,3.67-43.52,5.5-65.53,5.61-20.04.1-40.07,0-59.96-2.49-13.31-1.67-26.62-3.74-39.7-6.66-12.77-2.85-25.52-6.27-37.79-10.79-12.32-4.53-24.24-10.14-35.62-16.99-12.41-7.47-23.66-16.13-33.6-26.56-11.62-12.18-20.86-26.05-28.5-40.98-8.24-16.09-14.61-32.94-19.19-50.42-2.94-11.24-5.38-22.62-7.18-34.1-.91-5.77-1.65-11.56-2.22-17.37-.56-5.69-.78-11.41-1.53-17.08C-.02,282.77,0,277.11,0,271.31s0-12.02,0-18.04c0-4.74.02-9.48,0-14.22-.01-2.16.05-4.25.32-6.4.4-3.18.42-6.32.66-9.5.26-3.38.64-6.76.96-10.14.55-5.86,1.22-11.71,2.03-17.55,1.33-9.52,3.05-18.99,5.21-28.35,6.44-27.91,16.24-54.42,31.56-78.85,7.2-11.47,15.5-22.05,25.11-31.34,12.49-12.08,27.13-21.57,42.87-29.05,23.59-11.21,48.57-18.25,74.26-22.53C205.38,1.62,227.97-.25,250.7.03"></path><path class="cls-1" d="M341.8,129.48l-87.15,212.8-87.15-212.8h-33.6v253.05h33.6v-108.15c0-17.73-.17-32.9-.52-45.5s-1-21.93-1.93-28l73.5,181.65h32.2l73.85-182.35c-.47,4.44-.82,9.05-1.05,13.83-.23,4.79-.47,10.21-.7,16.27-.24,6.07-.35,13.3-.35,21.7v130.55h33.6v-253.05h-34.3Z"></path></svg>