<?xml version="1.0" encoding="UTF-8"?>
<svg id="Layer_1" xmlns="http://www.w3.org/2000/svg" viewBox="0 0 350 100">
  <defs>
    <style>
      .cls-1 {
        fill: #fff;
      }
    </style>
  </defs>
  <path class="cls-1" d="M25.93,36.76c-2.51-1.43-5.42-2.14-8.74-2.14H4.42v33.77h13.23c3.22,0,6.06-.71,8.51-2.14,2.45-1.43,4.36-3.41,5.75-5.93,1.38-2.53,2.08-5.43,2.08-8.72s-.72-6.3-2.14-8.85c-1.43-2.56-3.4-4.55-5.91-5.98ZM25.09,56.93c-.73,1.49-1.79,2.63-3.17,3.42-1.38.79-3.05,1.19-5,1.19h-5.11v-20.08h4.65c2.04,0,3.78.4,5.22,1.21,1.44.81,2.56,1.96,3.33,3.47.78,1.51,1.16,3.32,1.16,5.45s-.37,3.85-1.09,5.34Z"/>
  <rect class="cls-1" x="37.82" y="45.57" width="7.03" height="22.81"/>
  <path class="cls-1" d="M41.28,34.03c-1.13,0-2.08.38-2.85,1.14-.78.76-1.16,1.7-1.16,2.83s.39,2.08,1.16,2.85c.78.78,1.73,1.16,2.85,1.16s2.03-.39,2.81-1.16c.78-.78,1.16-1.73,1.16-2.85s-.39-2.07-1.16-2.83c-.78-.76-1.71-1.14-2.81-1.14Z"/>
  <path class="cls-1" d="M66.31,47.86c-.51-.78-1.24-1.44-2.19-1.98-1.29-.73-2.84-1.09-4.63-1.09-2.13,0-4.02.5-5.68,1.51-1.66,1-2.95,2.39-3.88,4.15-.93,1.76-1.39,3.8-1.39,6.11s.46,4.29,1.37,6.02c.91,1.73,2.18,3.09,3.81,4.06,1.63.97,3.51,1.46,5.64,1.46,1.82,0,3.44-.37,4.84-1.1.87-.45,1.54-1,2.05-1.63v3c0,1.61-.49,2.89-1.48,3.83-.99.94-2.34,1.41-4.04,1.41-1.55,0-2.78-.36-3.7-1.07-.91-.72-1.4-1.71-1.46-2.99h-7.12c.33,3.22,1.6,5.77,3.79,7.64,2.19,1.87,5.03,2.81,8.53,2.81,2.62,0,4.85-.52,6.71-1.57,1.86-1.05,3.29-2.56,4.29-4.52s1.51-4.3,1.51-7v-21.35h-6.62l-.34,2.3ZM65.58,59.33c-.44.84-1.07,1.49-1.87,1.96-.81.47-1.74.71-2.81.71s-1.95-.24-2.74-.73c-.79-.49-1.41-1.15-1.87-1.99-.46-.84-.68-1.8-.68-2.9s.22-2.05.66-2.87c.44-.82,1.06-1.46,1.85-1.92s1.7-.68,2.74-.68c1.1,0,2.05.23,2.85.68.81.46,1.43,1.09,1.87,1.89.44.81.66,1.77.66,2.9s-.22,2.11-.66,2.94Z"/>
  <rect class="cls-1" x="78.11" y="45.57" width="7.03" height="22.81"/>
  <path class="cls-1" d="M81.57,34.03c-1.13,0-2.08.38-2.85,1.14-.78.76-1.16,1.7-1.16,2.83s.39,2.08,1.16,2.85c.78.78,1.73,1.16,2.85,1.16s2.03-.39,2.81-1.16c.78-.78,1.16-1.73,1.16-2.85s-.39-2.07-1.16-2.83c-.78-.76-1.71-1.14-2.81-1.14Z"/>
  <polygon class="cls-1" points="99.19 38.5 92.16 38.5 92.16 45.57 87.82 45.57 87.82 51.41 92.16 51.41 92.16 68.38 99.19 68.38 99.19 51.41 103.52 51.41 103.52 45.57 99.19 45.57 99.19 38.5"/>
  <path class="cls-1" d="M122.21,46.03c-1.54-.79-3.41-1.19-5.64-1.19s-4.05.35-5.68,1.05c-1.63.7-2.88,1.69-3.76,2.97-.88,1.28-1.32,2.78-1.32,4.52h5.84c0-1.03.39-1.83,1.16-2.37.78-.55,1.91-.82,3.4-.82.85,0,1.56.13,2.12.39.56.26,1,.64,1.3,1.14.3.5.46,1.13.46,1.89v.37l-6.39.5c-2.74.21-4.83.94-6.27,2.19-1.45,1.25-2.17,2.92-2.17,5.02,0,2.22.71,3.99,2.12,5.32s3.32,1.98,5.73,1.98c1.7,0,3.23-.34,4.59-1.03,1.35-.68,2.21-1.54,2.58-2.58l.46,3.01h6.21v-13.32c0-2.19-.4-4.05-1.21-5.57-.81-1.52-1.98-2.68-3.51-3.47ZM120.13,59.85c0,1.31-.43,2.29-1.28,2.94-.85.65-1.95.98-3.29.98-1.07,0-1.86-.2-2.37-.59-.52-.4-.78-1-.78-1.83,0-.73.31-1.28.94-1.67.62-.38,1.7-.63,3.22-.75l3.56-.32v1.23Z"/>
  <rect class="cls-1" x="131.49" y="33.98" width="7.03" height="34.4"/>
  <polygon class="cls-1" points="152.57 38.5 145.55 38.5 145.55 45.57 141.21 45.57 141.21 51.41 145.55 51.41 145.55 68.38 152.57 68.38 152.57 51.41 156.91 51.41 156.91 45.57 152.57 45.57 152.57 38.5"/>
  <path class="cls-1" d="M172.06,54.92l-4.24-.91c-1.64-.37-2.46-1.03-2.46-2.01,0-.61.23-1.1.71-1.48.47-.38,1.1-.57,1.89-.57.85,0,1.51.24,1.96.71.46.47.68,1.1.68,1.89h6.66c0-1.55-.38-2.9-1.14-4.06-.76-1.16-1.82-2.05-3.17-2.69-1.35-.64-2.91-.96-4.68-.96s-3.45.3-4.88.89-2.56,1.45-3.4,2.56c-.84,1.11-1.25,2.46-1.25,4.04,0,2.01.52,3.52,1.55,4.54,1.03,1.02,2.6,1.76,4.7,2.21l4.2.91c.85.18,1.41.44,1.67.78.26.33.39.67.39,1,0,.58-.26,1.05-.78,1.41-.52.37-1.32.55-2.42.55s-1.89-.23-2.46-.68c-.58-.46-.9-1.08-.96-1.87h-6.66c0,2.31.88,4.19,2.65,5.64,1.76,1.45,4.15,2.17,7.16,2.17,1.98,0,3.73-.31,5.25-.94,1.52-.62,2.71-1.53,3.56-2.72.85-1.19,1.28-2.59,1.28-4.2,0-1.82-.5-3.22-1.48-4.18-.99-.96-2.43-1.63-4.31-2.03Z"/>
  <path class="cls-1" d="M216.79,60.24l-4.99-14.67h-16.33l-7.39,8.21v-19.8h-7.03v34.4h7.03v-5.7l2.69-2.83,5.11,8.53h8.12l-8.3-13.78,8.58-9.03,9.17,23.6-.41,1.09c-.3.82-.64,1.46-1,1.92-.37.46-.81.78-1.32.98-.52.2-1.17.3-1.96.3h-3.88v5.89c.7.21,1.44.37,2.21.48.78.11,1.59.16,2.44.16,2.01,0,3.69-.52,5.04-1.57,1.35-1.05,2.5-2.73,3.45-5.04l11.59-27.79h-7.3l-5.5,14.67Z"/>
  <path class="cls-1" d="M247.75,47.67c-.67-.85-1.62-1.54-2.85-2.05-1.23-.52-2.56-.78-3.99-.78-2.31,0-4.31.52-6,1.55-1.69,1.03-2.99,2.47-3.9,4.31-.91,1.84-1.37,3.98-1.37,6.41s.45,4.49,1.35,6.27c.9,1.78,2.15,3.16,3.76,4.13,1.61.97,3.51,1.46,5.7,1.46,1.64,0,3.13-.33,4.45-.98s2.29-1.5,2.9-2.53l.37,2.92h6.62v-34.4h-7.03v13.69ZM247,59.83c-.47.87-1.13,1.54-1.96,2.01-.84.47-1.8.71-2.9.71s-2.05-.24-2.87-.73c-.82-.49-1.45-1.16-1.89-2.01-.44-.85-.66-1.84-.66-2.97s.22-2.11.66-2.97c.44-.85,1.07-1.52,1.89-2.01.82-.49,1.78-.73,2.87-.73s2.06.24,2.9.71,1.49,1.13,1.96,1.98c.47.85.71,1.86.71,3.01s-.24,2.12-.71,2.99Z"/>
  <path class="cls-1" d="M276.5,47.67c-.67-.85-1.62-1.54-2.85-2.05-1.23-.52-2.56-.78-3.99-.78-2.31,0-4.31.52-6,1.55-1.69,1.03-2.99,2.47-3.9,4.31-.91,1.84-1.37,3.98-1.37,6.41s.45,4.49,1.35,6.27c.9,1.78,2.15,3.16,3.76,4.13,1.61.97,3.51,1.46,5.7,1.46,1.64,0,3.13-.33,4.45-.98s2.29-1.5,2.9-2.53l.37,2.92h6.62v-34.4h-7.03v13.69ZM275.75,59.83c-.47.87-1.13,1.54-1.96,2.01-.84.47-1.8.71-2.9.71s-2.05-.24-2.87-.73c-.82-.49-1.45-1.16-1.89-2.01-.44-.85-.66-1.84-.66-2.97s.22-2.11.66-2.97c.44-.85,1.07-1.52,1.89-2.01.82-.49,1.78-.73,2.87-.73s2.06.24,2.9.71,1.49,1.13,1.96,1.98c.47.85.71,1.86.71,3.01s-.24,2.12-.71,2.99Z"/>
  <path class="cls-1" d="M292.75,60.72c-1.16,0-2.14.4-2.97,1.21-.82.81-1.23,1.79-1.23,2.94s.41,2.09,1.23,2.9c.82.81,1.81,1.21,2.97,1.21s2.11-.4,2.94-1.21c.84-.81,1.25-1.77,1.25-2.9s-.42-2.14-1.25-2.94c-.84-.81-1.82-1.21-2.94-1.21Z"/>
  <path class="cls-1" d="M314.42,54.92l-4.24-.91c-1.64-.37-2.46-1.03-2.46-2.01,0-.61.23-1.1.71-1.48.47-.38,1.1-.57,1.89-.57.85,0,1.51.24,1.96.71.46.47.68,1.1.68,1.89h6.66c0-1.55-.38-2.9-1.14-4.06-.76-1.16-1.82-2.05-3.17-2.69-1.35-.64-2.91-.96-4.68-.96s-3.45.3-4.88.89-2.56,1.45-3.4,2.56c-.84,1.11-1.25,2.46-1.25,4.04,0,2.01.52,3.52,1.55,4.54,1.03,1.02,2.6,1.76,4.7,2.21l4.2.91c.85.18,1.41.44,1.67.78.26.33.39.67.39,1,0,.58-.26,1.05-.78,1.41-.52.37-1.32.55-2.42.55s-1.89-.23-2.46-.68c-.58-.46-.9-1.08-.96-1.87h-6.66c0,2.31.88,4.19,2.65,5.64,1.76,1.45,4.15,2.17,7.16,2.17,1.98,0,3.73-.31,5.25-.94,1.52-.62,2.71-1.53,3.56-2.72.85-1.19,1.28-2.59,1.28-4.2,0-1.82-.5-3.22-1.48-4.18-.99-.96-2.43-1.63-4.31-2.03Z"/>
  <path class="cls-1" d="M339.15,60.67c-.24.82-.81,1.46-1.69,1.92-.88.46-1.99.68-3.33.68-1.82,0-3.17-.51-4.04-1.53-.6-.7-.97-1.68-1.16-2.91l16.56-.08v-1.78c0-2.49-.47-4.65-1.41-6.46-.94-1.81-2.28-3.21-4.02-4.2-1.73-.99-3.8-1.48-6.21-1.48s-4.3.52-6.07,1.55c-1.76,1.03-3.14,2.46-4.13,4.27-.99,1.81-1.48,3.9-1.48,6.27s.51,4.42,1.53,6.23c1.02,1.81,2.42,3.23,4.2,4.27,1.78,1.03,3.81,1.55,6.09,1.55,3.13,0,5.75-.75,7.85-2.26,2.1-1.51,3.35-3.52,3.74-6.05h-6.43ZM331.01,51.23c.75-.46,1.71-.68,2.9-.68,1.43,0,2.56.36,3.38,1.07.82.72,1.23,1.68,1.23,2.9h-9.49c.08-.42.18-.82.32-1.16.37-.96.92-1.67,1.67-2.12Z"/>
</svg>