<?xml version="1.0" encoding="UTF-8"?>
<svg id="Lager_2" xmlns="http://www.w3.org/2000/svg" viewBox="0 0 346.16 58.45">
  <defs>
    <style>
      .cls-1 {
        fill: #111;
      }

      .cls-2 {
        fill: #fff;
      }

      .cls-3 {
        fill: #20a5fb;
      }
    </style>
  </defs>
  <g id="Layer_1">
    <g>
      <g>
        <path class="cls-1" d="M98,17.44c-1.87-1.06-4.04-1.6-6.51-1.6h-9.51v25.14h9.85c2.4,0,4.51-.53,6.34-1.6,1.82-1.06,3.25-2.54,4.28-4.42,1.03-1.88,1.55-4.04,1.55-6.49s-.53-4.69-1.6-6.59c-1.06-1.9-2.53-3.39-4.4-4.45ZM97.37,32.46c-.54,1.11-1.33,1.96-2.36,2.55-1.03.59-2.27.88-3.72.88h-3.8v-14.95h3.46c1.52,0,2.81.3,3.89.9,1.08.6,1.9,1.46,2.48,2.58.58,1.12.87,2.47.87,4.06s-.27,2.87-.82,3.97Z"/>
        <path class="cls-1" d="M110.11,21.35c.82,0,1.51-.29,2.09-.87.58-.58.87-1.29.87-2.12s-.29-1.54-.87-2.11c-.58-.57-1.27-.85-2.09-.85s-1.55.28-2.12.85c-.58.57-.87,1.27-.87,2.11s.29,1.55.87,2.12c.58.58,1.28.87,2.12.87Z"/>
        <rect class="cls-1" x="107.52" y="24" width="5.23" height="16.98"/>
        <path class="cls-1" d="M134.6,39.9v-15.9h-4.93l-.26,1.71c-.38-.58-.92-1.07-1.63-1.47-.96-.54-2.11-.82-3.45-.82-1.59,0-3,.37-4.23,1.12-1.23.75-2.2,1.78-2.89,3.09-.69,1.31-1.04,2.83-1.04,4.55s.34,3.19,1.02,4.48c.68,1.29,1.62,2.3,2.84,3.02,1.21.73,2.61,1.09,4.2,1.09,1.36,0,2.56-.27,3.6-.82.64-.33,1.15-.73,1.53-1.19v2.21c0,1.2-.37,2.15-1.1,2.85-.74.7-1.74,1.05-3.01,1.05-1.16,0-2.07-.27-2.75-.8-.68-.53-1.04-1.27-1.09-2.23h-5.3c.25,2.4,1.19,4.3,2.82,5.69s3.75,2.09,6.35,2.09c1.95,0,3.61-.39,4.99-1.17,1.38-.78,2.45-1.9,3.19-3.36.75-1.46,1.12-3.2,1.12-5.21ZM128.87,34.24c-.33.62-.79,1.11-1.39,1.46-.6.35-1.3.53-2.09.53s-1.45-.18-2.04-.54c-.59-.36-1.05-.85-1.39-1.48-.34-.62-.51-1.34-.51-2.16s.16-1.53.49-2.14c.33-.61.79-1.09,1.38-1.43.59-.34,1.27-.51,2.04-.51.81,0,1.52.17,2.12.51.6.34,1.06.81,1.39,1.41.33.6.49,1.32.49,2.16s-.16,1.57-.49,2.19Z"/>
        <path class="cls-1" d="M141.46,21.35c.82,0,1.51-.29,2.09-.87.58-.58.87-1.29.87-2.12s-.29-1.54-.87-2.11c-.58-.57-1.27-.85-2.09-.85s-1.55.28-2.12.85c-.58.57-.87,1.27-.87,2.11s.29,1.55.87,2.12c.58.58,1.28.87,2.12.87Z"/>
        <rect class="cls-1" x="138.88" y="24" width="5.23" height="16.98"/>
        <polygon class="cls-1" points="155.25 40.99 155.25 28.35 158.48 28.35 158.48 24 155.25 24 155.25 18.74 150.02 18.74 150.02 24 146.79 24 146.79 28.35 150.02 28.35 150.02 40.99 155.25 40.99"/>
        <path class="cls-1" d="M169.71,40.66c1.01-.51,1.65-1.15,1.92-1.92l.34,2.24h4.62v-9.92c0-1.63-.3-3.01-.9-4.14-.6-1.13-1.47-1.99-2.62-2.58-1.14-.59-2.54-.88-4.19-.88s-3.02.26-4.23.78c-1.21.52-2.15,1.26-2.8,2.21s-.98,2.07-.98,3.36h4.35c0-.77.29-1.36.87-1.77.58-.41,1.42-.61,2.53-.61.63,0,1.16.1,1.58.29.42.19.74.48.97.85.23.37.34.84.34,1.41v.27l-4.76.37c-2.04.16-3.6.7-4.67,1.63-1.08.93-1.61,2.17-1.61,3.74,0,1.65.53,2.97,1.58,3.96s2.47,1.48,4.26,1.48c1.27,0,2.41-.25,3.41-.76ZM165.78,35.75c0-.54.23-.96.7-1.24.46-.28,1.26-.47,2.4-.56l2.65-.24v.92c0,.97-.32,1.7-.95,2.19-.63.49-1.45.73-2.45.73-.79,0-1.38-.15-1.77-.44-.39-.29-.58-.75-.58-1.36Z"/>
        <rect class="cls-1" x="180.66" y="15.37" width="5.23" height="25.61"/>
        <polygon class="cls-1" points="191.8 40.99 197.03 40.99 197.03 28.35 200.26 28.35 200.26 24 197.03 24 197.03 18.74 191.8 18.74 191.8 24 188.58 24 188.58 28.35 191.8 28.35 191.8 40.99"/>
        <path class="cls-1" d="M212.93,40.73c1.13-.46,2.02-1.14,2.65-2.02.63-.88.95-1.92.95-3.13,0-1.36-.37-2.39-1.1-3.11-.74-.71-1.81-1.22-3.21-1.51l-3.16-.68c-1.22-.27-1.83-.77-1.83-1.49,0-.45.18-.82.53-1.1.35-.28.82-.42,1.41-.42.63,0,1.12.18,1.46.53.34.35.51.82.51,1.41h4.96c0-1.15-.28-2.16-.85-3.02-.57-.86-1.35-1.53-2.36-2-1.01-.48-2.17-.71-3.48-.71s-2.57.22-3.63.66c-1.06.44-1.91,1.08-2.53,1.9-.62.83-.93,1.83-.93,3.01,0,1.49.38,2.62,1.15,3.38.77.76,1.94,1.31,3.5,1.65l3.13.68c.63.14,1.05.33,1.24.58.19.25.29.5.29.75,0,.43-.19.78-.58,1.05-.39.27-.98.41-1.8.41s-1.4-.17-1.83-.51-.67-.8-.71-1.39h-4.96c0,1.72.66,3.12,1.97,4.2,1.31,1.08,3.09,1.61,5.33,1.61,1.47,0,2.77-.23,3.91-.7Z"/>
        <polygon class="cls-1" points="224.82 36.74 226.83 34.63 230.63 40.99 236.68 40.99 230.49 30.73 236.88 24 230.32 24 224.82 30.11 224.82 15.37 219.59 15.37 219.59 40.99 224.82 40.99 224.82 36.74"/>
        <path class="cls-1" d="M244.08,42.38c-.23.61-.48,1.09-.75,1.43-.27.34-.6.58-.99.73-.39.15-.87.22-1.46.22h-2.89v4.38c.52.16,1.07.28,1.65.36.58.08,1.18.12,1.82.12,1.49,0,2.75-.39,3.75-1.17,1.01-.78,1.86-2.03,2.56-3.75l8.63-20.69h-5.44l-4.1,10.92-3.72-10.92h-5.6l6.83,17.57-.3.81Z"/>
        <path class="cls-1" d="M260.93,40.34c1.2.72,2.62,1.09,4.25,1.09,1.22,0,2.33-.24,3.31-.73.98-.49,1.7-1.12,2.16-1.89l.27,2.17h4.93V15.37h-5.23v10.19c-.5-.63-1.21-1.14-2.12-1.53-.92-.38-1.91-.58-2.97-.58-1.72,0-3.21.39-4.47,1.15-1.26.77-2.23,1.84-2.9,3.21-.68,1.37-1.02,2.96-1.02,4.77s.33,3.35,1,4.67c.67,1.32,1.6,2.35,2.8,3.07ZM262.88,30.18c.33-.63.8-1.13,1.41-1.49.61-.36,1.32-.54,2.14-.54s1.53.18,2.16.53c.62.35,1.11.84,1.46,1.48.35.63.53,1.38.53,2.24s-.18,1.58-.53,2.22c-.35.65-.84,1.14-1.46,1.49-.62.35-1.34.53-2.16.53s-1.53-.18-2.14-.54c-.61-.36-1.08-.86-1.41-1.49-.33-.63-.49-1.37-.49-2.21s.16-1.57.49-2.21Z"/>
        <path class="cls-1" d="M292.69,25.56c-.5-.63-1.21-1.14-2.12-1.53-.92-.38-1.91-.58-2.97-.58-1.72,0-3.21.39-4.47,1.15-1.26.77-2.23,1.84-2.9,3.21-.68,1.37-1.02,2.96-1.02,4.77s.33,3.35,1,4.67c.67,1.32,1.6,2.35,2.8,3.07s2.62,1.09,4.25,1.09c1.22,0,2.33-.24,3.31-.73.98-.49,1.7-1.12,2.16-1.89l.27,2.17h4.93V15.37h-5.23v10.19ZM292.13,34.62c-.35.65-.84,1.14-1.46,1.49-.62.35-1.34.53-2.16.53s-1.53-.18-2.14-.54c-.61-.36-1.08-.86-1.41-1.49-.33-.63-.49-1.37-.49-2.21s.16-1.57.49-2.21c.33-.63.8-1.13,1.41-1.49.61-.36,1.32-.54,2.14-.54s1.53.18,2.16.53c.62.35,1.11.84,1.46,1.48.35.63.53,1.38.53,2.24s-.18,1.58-.53,2.22Z"/>
        <path class="cls-1" d="M305.46,35.28c-.86,0-1.6.3-2.21.9-.61.6-.92,1.33-.92,2.19s.31,1.56.92,2.16,1.35.9,2.21.9,1.57-.3,2.19-.9.93-1.32.93-2.16-.31-1.59-.93-2.19c-.62-.6-1.35-.9-2.19-.9Z"/>
        <path class="cls-1" d="M322.28,30.96l-3.16-.68c-1.22-.27-1.83-.77-1.83-1.49,0-.45.18-.82.53-1.1.35-.28.82-.42,1.41-.42.63,0,1.12.18,1.46.53.34.35.51.82.51,1.41h4.96c0-1.15-.28-2.16-.85-3.02-.57-.86-1.35-1.53-2.36-2-1.01-.48-2.17-.71-3.48-.71s-2.57.22-3.63.66c-1.06.44-1.91,1.08-2.53,1.9-.62.83-.93,1.83-.93,3.01,0,1.49.39,2.62,1.15,3.38.77.76,1.94,1.31,3.5,1.65l3.13.68c.63.14,1.05.33,1.24.58.19.25.29.5.29.75,0,.43-.19.78-.58,1.05-.39.27-.99.41-1.8.41s-1.4-.17-1.83-.51c-.43-.34-.67-.8-.71-1.39h-4.96c0,1.72.66,3.12,1.97,4.2,1.31,1.08,3.09,1.61,5.33,1.61,1.47,0,2.77-.23,3.91-.7,1.13-.46,2.02-1.14,2.65-2.02.63-.88.95-1.92.95-3.13,0-1.36-.37-2.39-1.1-3.11s-1.81-1.22-3.21-1.51Z"/>
        <path class="cls-1" d="M341.37,35.24c-.18.61-.6,1.09-1.26,1.43-.66.34-1.48.51-2.48.51-1.36,0-2.36-.38-3.01-1.14-.45-.52-.73-1.25-.87-2.17l12.34-.06v-1.32c0-1.86-.35-3.46-1.05-4.81-.7-1.35-1.7-2.39-2.99-3.13-1.29-.74-2.83-1.1-4.62-1.1s-3.2.39-4.52,1.15c-1.31.77-2.34,1.83-3.07,3.18-.74,1.35-1.1,2.9-1.1,4.67s.38,3.29,1.14,4.64c.76,1.35,1.8,2.41,3.13,3.18,1.32.77,2.84,1.15,4.53,1.15,2.33,0,4.28-.56,5.84-1.68,1.56-1.12,2.49-2.62,2.79-4.5h-4.79ZM335.31,28.21c.55-.34,1.27-.51,2.16-.51,1.06,0,1.9.27,2.51.8.61.53.92,1.25.92,2.16h-7.07c.06-.32.14-.6.24-.87.27-.71.68-1.24,1.24-1.58Z"/>
      </g>
      <circle class="cls-3" cx="29.22" cy="29.22" r="29.22"/>
      <path class="cls-2" d="M29.22,38.43c-3.81,0-7.9-1.49-11.84-4.3-2.95-2.1-4.77-4.19-4.84-4.28-.31-.36-.31-.89,0-1.25.08-.09,1.9-2.17,4.84-4.28,3.94-2.82,8.04-4.3,11.84-4.3s7.9,1.49,11.84,4.3c2.95,2.1,4.77,4.19,4.84,4.28.31.36.31.89,0,1.25-.08.09-1.9,2.17-4.84,4.28-3.94,2.82-8.04,4.3-11.84,4.3Z"/>
      <path class="cls-1" d="M30.29,24.76c-.75,2.5.6,3.83,3.37,3.45.65,1.58-.11,3.74-1.71,4.83-1.95,1.32-4.34,1.12-6.01-.51-1.55-1.52-1.83-4.04-.66-5.86,1.09-1.7,3.32-2.56,5.01-1.9Z"/>
    </g>
  </g>
</svg>