<?xml version="1.0" encoding="UTF-8"?>
<svg id="Layer_2" xmlns="http://www.w3.org/2000/svg" viewBox="0 0 358.65 57.5">
  <defs>
    <style>
      .cls-1 {
        fill: #111;
      }

      .cls-2 {
        fill: #fff;
      }

      .cls-3 {
        fill: #20a5fb;
      }
    </style>
  </defs>
  <g id="Layer_1-2" data-name="Layer_1">
    <g>
      <g>
        <circle class="cls-3" cx="27.76" cy="27.76" r="27.76"/>
        <path class="cls-2" d="M27.76,36.5c-3.61,0-7.5-1.41-11.25-4.09-2.8-2-4.53-3.98-4.6-4.06-.3-.34-.3-.85,0-1.19.07-.08,1.8-2.06,4.6-4.06,3.75-2.67,7.64-4.09,11.25-4.09s7.5,1.41,11.25,4.09c2.8,2,4.53,3.98,4.6,4.06.3.34.3.85,0,1.19-.07.08-1.8,2.06-4.6,4.06-3.74,2.67-7.63,4.09-11.25,4.09Z"/>
        <path class="cls-1" d="M28.77,23.52c-.71,2.37.57,3.64,3.2,3.27.62,1.5-.11,3.55-1.62,4.59-1.85,1.26-4.13,1.06-5.71-.49-1.47-1.44-1.74-3.84-.62-5.56,1.04-1.61,3.16-2.43,4.76-1.81Z"/>
      </g>
      <g>
        <path d="M95.92,14c-2.56-1.45-5.54-2.18-8.91-2.18h-12.01v34.29h12.34c3.31,0,6.23-.72,8.75-2.16,2.52-1.44,4.49-3.45,5.91-6.03,1.42-2.58,2.13-5.54,2.13-8.89s-.73-6.4-2.18-8.98c-1.45-2.58-3.46-4.6-6.03-6.05ZM96.49,35.17c-.88,1.72-2.14,3.05-3.8,3.99-1.66.94-3.63,1.41-5.91,1.41h-5.77v-23.22h5.44c2.38,0,4.41.47,6.1,1.41,1.69.94,2.99,2.27,3.89,4.01.91,1.74,1.36,3.82,1.36,6.26s-.44,4.43-1.31,6.15Z"/>
        <rect x="109.34" y="22.93" width="5.72" height="23.17"/>
        <path d="M112.15,11.39c-.97,0-1.79.33-2.46.99s-1.01,1.47-1.01,2.44.33,1.79,1.01,2.46c.67.67,1.49,1.01,2.46,1.01s1.79-.34,2.46-1.01,1.01-1.49,1.01-2.46-.34-1.78-1.01-2.44c-.67-.66-1.49-.99-2.46-.99Z"/>
        <path d="M138.71,26.11c-.58-1.06-1.41-1.93-2.5-2.59-1.41-.86-3.1-1.29-5.07-1.29-2.19,0-4.11.52-5.77,1.55-1.66,1.03-2.95,2.43-3.87,4.2-.92,1.77-1.38,3.78-1.38,6.03s.45,4.25,1.36,6c.91,1.75,2.17,3.13,3.8,4.13,1.62,1,3.53,1.5,5.72,1.5,1.97,0,3.71-.44,5.21-1.31,1.05-.61,1.85-1.37,2.44-2.27v3.91c0,1.94-.59,3.48-1.76,4.62-1.17,1.14-2.74,1.71-4.71,1.71-1.78,0-3.21-.42-4.29-1.27-1.08-.84-1.71-2.02-1.9-3.52h-5.72c.38,3.1,1.63,5.54,3.75,7.32,2.13,1.78,4.85,2.67,8.16,2.67,2.53,0,4.7-.51,6.5-1.52,1.8-1.02,3.19-2.47,4.17-4.36.99-1.89,1.48-4.12,1.48-6.68v-22h-5.3l-.32,3.18ZM137.74,37.4c-.52,1.02-1.25,1.81-2.21,2.39-.95.58-2.09.87-3.4.87s-2.35-.3-3.28-.89c-.94-.59-1.67-1.4-2.18-2.42-.52-1.02-.77-2.18-.77-3.49s.25-2.42.75-3.42c.5-1,1.22-1.79,2.16-2.37.94-.58,2.05-.87,3.33-.87s2.49.28,3.45.84c.95.56,1.68,1.34,2.18,2.32.5.98.75,2.15.75,3.49s-.26,2.53-.77,3.54Z"/>
        <path d="M153.53,11.39c-.97,0-1.79.33-2.46.99s-1.01,1.47-1.01,2.44.33,1.79,1.01,2.46c.67.67,1.49,1.01,2.46,1.01s1.79-.34,2.46-1.01,1.01-1.49,1.01-2.46-.34-1.78-1.01-2.44c-.67-.66-1.49-.99-2.46-.99Z"/>
        <rect x="150.71" y="22.93" width="5.72" height="23.17"/>
        <polygon points="170.69 15.71 164.97 15.71 164.97 22.93 160.51 22.93 160.51 27.72 164.97 27.72 164.97 46.1 170.69 46.1 170.69 27.72 175.15 27.72 175.15 22.93 170.69 22.93 170.69 15.71"/>
        <path d="M194.48,23.33c-1.5-.73-3.3-1.1-5.39-1.1s-3.89.34-5.46,1.03c-1.58.69-2.8,1.65-3.66,2.88-.86,1.24-1.29,2.7-1.29,4.39h4.88c0-1.22.45-2.17,1.36-2.84.91-.67,2.21-1.01,3.89-1.01.97,0,1.81.15,2.53.45.72.3,1.27.77,1.67,1.41.39.64.59,1.49.59,2.56v.52l-6.94.56c-2.75.22-4.87.96-6.36,2.23-1.49,1.27-2.23,2.96-2.23,5.09s.71,3.9,2.13,5.23c1.42,1.33,3.35,1.99,5.79,1.99,1.81,0,3.43-.38,4.85-1.13s2.38-1.72,2.88-2.91l.42,3.42h5.02v-14.07c0-2.16-.41-3.96-1.22-5.42s-1.97-2.55-3.47-3.28ZM193.63,36.72c0,1.78-.52,3.17-1.57,4.17-1.05,1-2.46,1.5-4.25,1.5-1.25,0-2.22-.27-2.91-.8-.69-.53-1.03-1.31-1.03-2.35,0-.94.38-1.7,1.13-2.27.75-.58,2.02-.95,3.8-1.1l4.83-.38v1.22Z"/>
        <rect x="205.36" y="11.2" width="5.68" height="34.9"/>
        <polygon points="225.39 15.71 219.66 15.71 219.66 22.93 215.21 22.93 215.21 27.72 219.66 27.72 219.66 46.1 225.39 46.1 225.39 27.72 229.84 27.72 229.84 22.93 225.39 22.93 225.39 15.71"/>
        <path d="M245.42,32.88l-4.17-.98c-2-.47-3-1.34-3-2.63,0-.84.31-1.52.94-2.02.62-.5,1.5-.75,2.63-.75s2,.29,2.63.87c.63.58.94,1.37.94,2.37h5.44c-.03-1.5-.42-2.81-1.15-3.94-.74-1.13-1.76-2-3.07-2.63-1.31-.63-2.83-.94-4.55-.94s-3.36.29-4.74.87-2.46,1.42-3.26,2.51c-.8,1.1-1.2,2.39-1.2,3.89,0,1.85.51,3.29,1.52,4.34,1.02,1.05,2.57,1.81,4.67,2.27l4.17.98c1.03.22,1.74.55,2.11.99.38.44.56.94.56,1.5,0,.84-.35,1.52-1.05,2.02-.7.5-1.74.75-3.12.75-1.28,0-2.28-.3-3-.89-.72-.59-1.09-1.39-1.12-2.39h-5.44c0,2.28.85,4.13,2.56,5.54,1.7,1.41,3.99,2.11,6.87,2.11,1.91,0,3.6-.31,5.07-.91,1.47-.61,2.61-1.49,3.42-2.63.81-1.14,1.22-2.49,1.22-4.06,0-1.78-.49-3.16-1.48-4.13-.98-.97-2.45-1.67-4.39-2.11Z"/>
        <polygon points="270.89 22.93 261.88 32.64 261.88 11.2 256.2 11.2 256.2 46.1 261.88 46.1 261.88 39.86 265.26 36.35 271.31 46.1 277.88 46.1 269.24 32.12 278.06 22.93 270.89 22.93"/>
        <path d="M291.21,39.83l-5.97-16.9h-6.05l9.32,24.17-.64,1.72c-.31.91-.7,1.59-1.15,2.06-.45.47-.96.79-1.53.96-.56.17-1.22.26-1.97.26h-3.42v4.74c.62.19,1.29.32,1.99.4.7.08,1.46.12,2.28.12,1.91,0,3.5-.49,4.78-1.45,1.28-.97,2.35-2.52,3.19-4.64l11.35-28.33h-5.91l-6.28,16.9Z"/>
        <path d="M323.47,25.89c-.72-1.16-1.75-2.06-3.1-2.7-1.34-.64-2.83-.96-4.46-.96-2.31,0-4.32.53-6,1.6-1.69,1.06-2.98,2.53-3.87,4.39-.89,1.86-1.34,4-1.34,6.4s.45,4.52,1.34,6.33c.89,1.81,2.14,3.23,3.75,4.25,1.61,1.02,3.54,1.52,5.79,1.52,1.75,0,3.34-.38,4.76-1.13s2.48-1.78,3.17-3.1l.38,3.61h5.25V11.2h-5.68v14.68ZM322.6,38.11c-.55,1.08-1.31,1.91-2.28,2.49-.97.58-2.13.87-3.47.87s-2.46-.3-3.42-.89c-.97-.59-1.71-1.42-2.23-2.49-.52-1.06-.77-2.28-.77-3.66s.26-2.6.77-3.66c.52-1.06,1.26-1.9,2.23-2.51.97-.61,2.11-.91,3.42-.91s2.5.3,3.47.91c.97.61,1.73,1.44,2.28,2.49.55,1.05.82,2.28.82,3.68s-.27,2.6-.82,3.68Z"/>
        <path d="M352.97,11.2v14.68c-.72-1.16-1.75-2.06-3.1-2.7-1.34-.64-2.83-.96-4.46-.96-2.31,0-4.32.53-6,1.6-1.69,1.06-2.98,2.53-3.87,4.39-.89,1.86-1.34,4-1.34,6.4s.45,4.52,1.34,6.33c.89,1.81,2.14,3.23,3.75,4.25,1.61,1.02,3.54,1.52,5.79,1.52,1.75,0,3.34-.38,4.76-1.13s2.48-1.78,3.17-3.1l.38,3.61h5.25V11.2h-5.68ZM352.11,38.11c-.55,1.08-1.31,1.91-2.28,2.49-.97.58-2.13.87-3.47.87s-2.46-.3-3.42-.89c-.97-.59-1.71-1.42-2.23-2.49-.52-1.06-.77-2.28-.77-3.66s.26-2.6.77-3.66c.52-1.06,1.26-1.9,2.23-2.51.97-.61,2.11-.91,3.42-.91s2.5.3,3.47.91c.97.61,1.73,1.44,2.28,2.49.55,1.05.82,2.28.82,3.68s-.27,2.6-.82,3.68Z"/>
      </g>
    </g>
  </g>
</svg>