<?xml version="1.0" encoding="UTF-8"?>
<svg id="Layer_2" xmlns="http://www.w3.org/2000/svg" viewBox="0 0 510 510">
  <defs>
    <style>
      .cls-1 {
        fill: #111;
      }

      .cls-2 {
        fill: #fff;
      }

      .cls-3 {
        fill: #20a5fb;
      }
    </style>
  </defs>
  <g id="Layer_1-2" data-name="Layer_1">
    <g>
      <circle class="cls-3" cx="255" cy="255" r="255"/>
      <path class="cls-2" d="M255,335.35c-33.2,0-68.94-12.99-103.35-37.55-25.72-18.37-41.59-36.56-42.26-37.33-2.72-3.14-2.72-7.79,0-10.93.66-.77,16.54-18.96,42.26-37.33,34.41-24.57,70.14-37.55,103.35-37.55s68.94,12.99,103.35,37.55c25.72,18.37,41.59,36.56,42.26,37.33,2.72,3.14,2.72,7.79,0,10.93-.66.77-16.54,18.96-42.26,37.33-34.4,24.57-70.14,37.55-103.35,37.55Z"/>
      <path class="cls-1" d="M264.28,216.08c-6.51,21.78,5.21,33.46,29.39,30.06,5.7,13.81-.97,32.63-14.92,42.12-16.99,11.56-37.9,9.77-52.42-4.49-13.49-13.24-15.96-35.24-5.74-51.09,9.54-14.8,29.01-22.35,43.7-16.61Z"/>
    </g>
  </g>
</svg>