<?xml version="1.0" encoding="UTF-8"?>
<svg id="Layer_2" xmlns="http://www.w3.org/2000/svg" viewBox="0 0 287.22 61.47">
  <defs>
    <style>
      .cls-1 {
        fill: #111;
      }

      .cls-2 {
        fill: #fff;
      }

      .cls-3 {
        fill: #20a5fb;
      }
    </style>
  </defs>
  <g id="Layer_1-2" data-name="Layer_1">
    <g>
      <g>
        <circle class="cls-3" cx="29.22" cy="29.22" r="29.22"/>
        <path class="cls-2" d="M29.22,38.43c-3.81,0-7.9-1.49-11.84-4.3-2.95-2.1-4.77-4.19-4.84-4.28-.31-.36-.31-.89,0-1.25.08-.09,1.9-2.17,4.84-4.28,3.94-2.82,8.04-4.3,11.84-4.3s7.9,1.49,11.84,4.3c2.95,2.1,4.77,4.19,4.84,4.28.31.36.31.89,0,1.25-.08.09-1.9,2.17-4.84,4.28-3.94,2.82-8.04,4.3-11.84,4.3Z"/>
        <path class="cls-1" d="M30.29,24.76c-.75,2.5.6,3.83,3.37,3.45.65,1.58-.11,3.74-1.71,4.83-1.95,1.32-4.34,1.12-6.01-.51-1.55-1.52-1.83-4.04-.66-5.86,1.09-1.7,3.32-2.56,5.01-1.9Z"/>
      </g>
      <g>
        <path class="cls-2" d="M97.06,7.42c-1.93-1.08-4.17-1.62-6.73-1.62h-8.34v25.67h8.48c2.53,0,4.75-.54,6.66-1.62,1.9-1.08,3.39-2.58,4.45-4.51,1.07-1.93,1.6-4.16,1.6-6.69s-.54-4.8-1.62-6.73c-1.08-1.93-2.58-3.43-4.51-4.51ZM98.41,23.75c-.77,1.43-1.85,2.54-3.23,3.32-1.39.78-3.04,1.17-4.95,1.17h-4.76V9h4.61c1.96,0,3.65.39,5.06,1.17s2.5,1.89,3.27,3.34c.77,1.44,1.15,3.16,1.15,5.15s-.38,3.66-1.15,5.09Z"/>
        <rect class="cls-2" x="107.4" y="14.12" width="3.34" height="17.36"/>
        <path class="cls-2" d="M109.04,10c.62,0,1.14-.22,1.56-.66s.64-.95.64-1.54-.21-1.14-.64-1.56-.95-.64-1.56-.64-1.11.21-1.54.64c-.44.43-.66.95-.66,1.56s.22,1.11.66,1.54c.44.44.95.66,1.54.66Z"/>
        <path class="cls-2" d="M129.09,17.11c-.48-.97-1.16-1.77-2.05-2.37-1.11-.75-2.45-1.12-4.01-1.12-1.68,0-3.14.39-4.37,1.17-1.23.78-2.18,1.83-2.84,3.14-.66,1.31-.99,2.79-.99,4.42s.33,3.1.98,4.4c.65,1.3,1.58,2.34,2.79,3.11,1.21.77,2.64,1.15,4.3,1.15,1.56,0,2.93-.37,4.12-1.12.88-.55,1.55-1.26,2.02-2.12v3.48c0,1.66-.49,2.98-1.47,3.96-.98.98-2.29,1.47-3.92,1.47-1.44,0-2.63-.36-3.55-1.07-.92-.71-1.49-1.7-1.7-2.98h-3.34c.33,2.2,1.25,3.93,2.77,5.18,1.51,1.25,3.46,1.88,5.82,1.88,1.77,0,3.31-.37,4.61-1.1,1.3-.73,2.31-1.77,3.02-3.11.71-1.34,1.06-2.92,1.06-4.74V14.12h-2.98l-.25,2.99ZM128.23,25.3c-.44.88-1.06,1.56-1.86,2.06-.81.5-1.78.75-2.91.75-1.06,0-1.99-.26-2.79-.78s-1.41-1.22-1.85-2.1c-.44-.88-.66-1.86-.66-2.95s.21-2.03.64-2.89c.43-.86,1.04-1.56,1.83-2.08.79-.52,1.75-.78,2.86-.78s2.11.25,2.91.75c.8.5,1.42,1.17,1.85,2.02.43.85.64,1.85.64,2.98s-.22,2.14-.66,3.02Z"/>
        <rect class="cls-2" x="137.51" y="14.12" width="3.34" height="17.36"/>
        <path class="cls-2" d="M139.14,5.6c-.59,0-1.11.21-1.54.64-.44.43-.66.95-.66,1.56s.22,1.11.66,1.54c.44.44.95.66,1.54.66s1.14-.22,1.56-.66.64-.95.64-1.54-.21-1.14-.64-1.56-.95-.64-1.56-.64Z"/>
        <polygon class="cls-2" points="154.34 16.92 154.34 14.12 150.93 14.12 150.93 8.68 147.59 8.68 147.59 14.12 144.18 14.12 144.18 16.92 147.59 16.92 147.59 31.48 150.93 31.48 150.93 16.92 154.34 16.92"/>
        <path class="cls-2" d="M171.8,20.58c0-1.56-.3-2.86-.9-3.89s-1.44-1.8-2.52-2.31c-1.08-.51-2.34-.76-3.78-.76s-2.8.25-3.92.75-1.99,1.2-2.61,2.09c-.62.9-.92,1.95-.92,3.16h2.91c0-1.06.38-1.89,1.15-2.47.77-.58,1.85-.87,3.25-.87.78,0,1.48.12,2.09.37s1.1.66,1.46,1.24c.35.58.53,1.35.53,2.32v.5l-5.47.43c-2.04.17-3.62.73-4.76,1.69-1.14.96-1.7,2.23-1.7,3.82s.53,2.83,1.58,3.8c1.05.97,2.5,1.46,4.35,1.46,1.4,0,2.65-.29,3.75-.87s1.88-1.37,2.33-2.36l.35,2.8h2.84v-10.9ZM168.57,23.99c0,1.63-.45,2.93-1.35,3.89-.9.96-2.14,1.44-3.73,1.44-1.09,0-1.95-.23-2.57-.69-.63-.46-.94-1.15-.94-2.08,0-.85.32-1.55.98-2.09.65-.54,1.71-.89,3.18-1.03l4.44-.35v.92Z"/>
        <rect class="cls-2" x="176.85" y="5.35" width="3.34" height="26.13"/>
        <polygon class="cls-2" points="190.34 8.68 187 8.68 187 14.12 183.59 14.12 183.59 16.92 187 16.92 187 31.48 190.34 31.48 190.34 16.92 193.75 16.92 193.75 14.12 190.34 14.12 190.34 8.68"/>
        <path class="cls-2" d="M205.14,28.58c-.64.46-1.55.69-2.73.69-1.09,0-1.95-.25-2.59-.76-.64-.51-.96-1.2-.96-2.08h-3.2c0,1.66.6,2.98,1.81,3.98,1.21.99,2.83,1.49,4.86,1.49,1.4,0,2.61-.22,3.64-.66,1.03-.44,1.84-1.07,2.43-1.88s.89-1.77.89-2.86c0-1.28-.37-2.29-1.1-3.04s-1.83-1.28-3.3-1.62l-3.05-.75c-1.7-.43-2.56-1.22-2.56-2.38,0-.78.28-1.4.85-1.85.57-.45,1.37-.67,2.41-.67s1.81.25,2.38.75c.57.5.86,1.2.89,2.09h3.19c-.02-1.11-.3-2.07-.83-2.88-.53-.8-1.27-1.43-2.2-1.88-.94-.45-2.04-.68-3.32-.68s-2.41.21-3.39.64-1.75,1.03-2.31,1.81c-.56.78-.83,1.7-.83,2.77,0,1.28.37,2.31,1.12,3.09.75.78,1.89,1.36,3.43,1.74l3.05.71c.9.24,1.52.54,1.86.92.34.38.52.85.52,1.42,0,.78-.32,1.4-.96,1.86Z"/>
        <polygon class="cls-2" points="224.45 14.12 216.75 22.28 216.75 5.35 213.41 5.35 213.41 31.48 216.75 31.48 216.75 26.54 219.7 23.45 224.77 31.48 228.61 31.48 222 21.04 228.64 14.12 224.45 14.12"/>
        <path class="cls-2" d="M235.99,34.07c-.26.73-.58,1.27-.96,1.61-.38.34-.79.57-1.24.68-.45.11-.95.16-1.49.16h-2.24v2.73c.45.12.91.21,1.38.27.47.06.98.09,1.53.09,1.33,0,2.44-.33,3.34-.99.9-.66,1.65-1.74,2.24-3.23l8.2-21.27h-3.44l-5.13,14-5.06-14h-3.52l7,18.28-.61,1.67Z"/>
        <path class="cls-2" d="M265.57,5.35h-3.3v11.57c-.59-1.09-1.41-1.91-2.47-2.47-1.05-.56-2.25-.83-3.6-.83-1.7,0-3.17.4-4.4,1.21-1.23.81-2.18,1.9-2.84,3.28-.66,1.38-.99,2.96-.99,4.74s.33,3.31.98,4.69,1.58,2.44,2.79,3.21c1.21.77,2.65,1.15,4.33,1.15,1.4,0,2.65-.31,3.75-.92s1.93-1.5,2.5-2.66l.28,3.16h2.98V5.35ZM261.55,25.94c-.45.92-1.08,1.65-1.9,2.17-.82.52-1.79.78-2.93.78s-2.11-.26-2.91-.78c-.8-.52-1.42-1.24-1.85-2.17s-.64-1.99-.64-3.19.21-2.23.64-3.14c.43-.91,1.04-1.63,1.85-2.17.8-.53,1.78-.8,2.91-.8s2.11.26,2.93.78c.82.52,1.45,1.24,1.9,2.15.45.91.67,1.97.67,3.18s-.23,2.27-.67,3.19Z"/>
        <path class="cls-2" d="M283.92,5.35v11.57c-.59-1.09-1.41-1.91-2.47-2.47-1.05-.56-2.25-.83-3.6-.83-1.7,0-3.17.4-4.4,1.21-1.23.81-2.18,1.9-2.84,3.28-.66,1.38-.99,2.96-.99,4.74s.33,3.31.98,4.69,1.58,2.44,2.79,3.21c1.21.77,2.65,1.15,4.33,1.15,1.4,0,2.65-.31,3.75-.92s1.93-1.5,2.5-2.66l.28,3.16h2.98V5.35h-3.3ZM283.21,25.94c-.45.92-1.08,1.65-1.9,2.17-.82.52-1.79.78-2.93.78s-2.11-.26-2.91-.78c-.8-.52-1.42-1.24-1.85-2.17s-.64-1.99-.64-3.19.21-2.23.64-3.14c.43-.91,1.04-1.63,1.85-2.17.8-.53,1.78-.8,2.91-.8s2.11.26,2.93.78c.82.52,1.45,1.24,1.9,2.15.45.91.67,1.97.67,3.18s-.23,2.27-.67,3.19Z"/>
        <polygon class="cls-2" points="83.88 51.67 89.64 51.67 89.64 50.51 83.88 50.51 83.88 45.91 90.22 45.91 90.22 44.73 82.59 44.73 82.59 57.5 90.24 57.5 90.24 56.32 83.88 56.32 83.88 51.67"/>
        <path class="cls-2" d="M96.96,48.64c-.63,0-1.21.15-1.74.45-.53.3-.94.73-1.22,1.27l-.18-1.5h-1.07v8.63h1.23v-4.51c0-.97.24-1.76.72-2.34s1.16-.88,2.04-.88c.71,0,1.28.2,1.7.61.42.4.63,1.11.63,2.12v5.01h1.23v-5.28c0-1.08-.26-1.95-.78-2.6s-1.38-.98-2.57-.98Z"/>
        <path class="cls-2" d="M111.6,52.82l-1.48-.37c-.94-.24-1.41-.69-1.41-1.35,0-.46.16-.82.49-1.07.33-.25.79-.37,1.4-.37s1.04.14,1.37.41c.33.27.5.67.52,1.18h1.19c-.01-.54-.15-1-.4-1.38-.26-.39-.61-.69-1.06-.9s-.98-.32-1.59-.32-1.16.1-1.63.3-.83.49-1.1.86-.39.81-.39,1.31c0,.58.18,1.07.55,1.46.37.39.93.68,1.68.87l1.48.37c.51.13.87.3,1.07.52s.3.5.3.86c0,.46-.19.83-.56,1.1-.37.27-.89.4-1.56.4-.59,0-1.07-.15-1.43-.44-.36-.29-.53-.69-.53-1.19h-1.18c0,.8.29,1.44.86,1.92s1.34.72,2.3.72c.65,0,1.23-.1,1.72-.31.49-.21.88-.51,1.15-.9.27-.39.41-.84.41-1.35,0-.62-.17-1.11-.53-1.48s-.9-.65-1.65-.84Z"/>
        <path class="cls-2" d="M119.4,54.43c-.13.31-.25.61-.36.9-.11.29-.2.59-.28.88-.08-.29-.18-.57-.28-.86-.1-.29-.22-.6-.35-.92l-2.23-5.56h-1.32l3.53,8.63h1.23l3.58-8.63h-1.27l-2.26,5.56Z"/>
        <path class="cls-2" d="M129.77,49.15c-.59-.34-1.27-.52-2.06-.52s-1.54.19-2.16.58c-.62.39-1.1.92-1.45,1.6-.35.68-.53,1.47-.53,2.36s.18,1.69.53,2.37c.36.68.85,1.21,1.49,1.59.64.38,1.37.57,2.2.57,1.02,0,1.86-.24,2.51-.72s1.09-1.17,1.32-2.08h-1.18c-.16.57-.46,1-.91,1.3s-1.03.45-1.73.45c-.97,0-1.73-.31-2.25-.94-.48-.57-.73-1.37-.78-2.37h6.84v-.61c0-.82-.16-1.54-.49-2.15-.33-.61-.78-1.09-1.37-1.44ZM124.82,52.45c.05-.43.14-.84.3-1.18.24-.5.58-.89,1.02-1.17.45-.27.97-.41,1.56-.41.81,0,1.46.25,1.95.76.49.51.74,1.17.74,2.01h-5.58Z"/>
        <path class="cls-2" d="M137.98,48.64c-.63,0-1.21.15-1.74.45-.53.3-.94.73-1.22,1.27l-.18-1.5h-1.07v8.63h1.23v-4.51c0-.97.24-1.76.72-2.34s1.16-.88,2.04-.88c.71,0,1.28.2,1.7.61.42.4.63,1.11.63,2.12v5.01h1.23v-5.28c0-1.08-.26-1.95-.78-2.6s-1.38-.98-2.57-.98Z"/>
        <path class="cls-2" d="M147.39,52.82l-1.48-.37c-.94-.24-1.41-.69-1.41-1.35,0-.46.16-.82.49-1.07.33-.25.79-.37,1.4-.37s1.04.14,1.37.41c.33.27.5.67.52,1.18h1.19c-.01-.54-.15-1-.4-1.38-.26-.39-.61-.69-1.06-.9s-.98-.32-1.59-.32-1.16.1-1.63.3-.83.49-1.1.86-.39.81-.39,1.31c0,.58.18,1.07.55,1.46.37.39.93.68,1.68.87l1.48.37c.51.13.87.3,1.07.52s.3.5.3.86c0,.46-.19.83-.56,1.1-.37.27-.89.4-1.56.4-.59,0-1.07-.15-1.43-.44-.36-.29-.53-.69-.53-1.19h-1.18c0,.8.29,1.44.86,1.92s1.34.72,2.3.72c.65,0,1.23-.1,1.72-.31.49-.21.88-.51,1.15-.9.27-.39.41-.84.41-1.35,0-.62-.17-1.11-.53-1.48s-.9-.65-1.65-.84Z"/>
        <polygon class="cls-2" points="158.89 48.87 157.34 48.87 153.06 53.32 153.06 44.5 151.83 44.5 151.83 57.5 153.06 57.5 153.06 54.91 154.73 53.18 157.48 57.5 158.9 57.5 155.57 52.31 158.89 48.87"/>
        <rect class="cls-2" x="165.66" y="48.87" width="1.23" height="8.63"/>
        <path class="cls-2" d="M166.26,44.66c-.25,0-.46.09-.64.28-.18.18-.27.4-.27.65s.09.46.27.64c.18.18.39.27.64.27s.47-.09.65-.27c.18-.18.28-.39.28-.64s-.09-.47-.28-.65c-.18-.18-.4-.28-.65-.28Z"/>
        <path class="cls-2" d="M173.84,48.64c-.63,0-1.21.15-1.74.45-.53.3-.94.73-1.22,1.27l-.18-1.5h-1.07v8.63h1.23v-4.51c0-.97.24-1.76.72-2.34s1.16-.88,2.04-.88c.71,0,1.28.2,1.7.61.42.4.63,1.11.63,2.12v5.01h1.23v-5.28c0-1.08-.26-1.95-.78-2.6s-1.38-.98-2.57-.98Z"/>
        <polygon class="cls-2" points="181.81 46.14 180.6 46.14 180.6 48.87 178.87 48.87 178.87 49.9 180.6 49.9 180.6 57.5 181.81 57.5 181.81 49.9 183.54 49.9 183.54 48.87 181.81 48.87 181.81 46.14"/>
        <path class="cls-2" d="M190.82,49.15c-.59-.34-1.27-.52-2.06-.52s-1.54.19-2.16.58c-.62.39-1.1.92-1.45,1.6-.35.68-.53,1.47-.53,2.36s.18,1.69.53,2.37c.36.68.85,1.21,1.49,1.59.64.38,1.37.57,2.2.57,1.02,0,1.86-.24,2.51-.72s1.09-1.17,1.32-2.08h-1.18c-.16.57-.46,1-.91,1.3s-1.03.45-1.73.45c-.97,0-1.73-.31-2.25-.94-.48-.57-.73-1.37-.78-2.37h6.84v-.61c0-.82-.16-1.54-.49-2.15-.33-.61-.78-1.09-1.37-1.44ZM185.88,52.45c.05-.43.14-.84.3-1.18.24-.5.58-.89,1.02-1.17.45-.27.97-.41,1.56-.41.81,0,1.46.25,1.95.76.49.51.74,1.17.74,2.01h-5.58Z"/>
        <path class="cls-2" d="M201.48,50.61c-.25-.58-.61-1.04-1.09-1.37-.58-.4-1.28-.61-2.1-.61s-1.57.2-2.17.59c-.61.39-1.07.91-1.39,1.56-.32.65-.48,1.36-.48,2.15s.16,1.5.47,2.15c.31.65.77,1.17,1.36,1.56.59.39,1.3.59,2.12.59s1.54-.21,2.15-.63c.49-.34.86-.78,1.11-1.31v2.06c0,.9-.27,1.63-.8,2.17-.53.55-1.25.82-2.14.82-.78,0-1.43-.19-1.93-.58-.5-.39-.82-.93-.95-1.63h-1.23c.18,1.03.63,1.85,1.35,2.44.72.59,1.64.89,2.74.89.84,0,1.58-.17,2.2-.53.62-.35,1.11-.84,1.45-1.48.35-.64.52-1.38.52-2.24v-8.36h-1.07l-.12,1.74ZM200.99,54.56c-.24.48-.58.86-1.02,1.14s-.98.42-1.59.42-1.13-.14-1.56-.43c-.43-.29-.77-.67-1-1.16-.23-.49-.35-1.03-.35-1.62s.12-1.11.35-1.59c.23-.48.56-.87,1-1.16.43-.29.96-.44,1.58-.44s1.18.14,1.61.42c.43.28.77.66,1,1.13.23.48.35,1.02.35,1.64s-.12,1.17-.36,1.65Z"/>
        <path class="cls-2" d="M209.12,48.67c-.67,0-1.23.17-1.69.53-.36.28-.62.62-.77,1.02l-.09-1.35h-1.16v8.63h1.23v-4.92c0-.83.23-1.49.7-1.98.47-.49,1.1-.73,1.9-.73h.68v-1.11c-.14-.04-.28-.06-.41-.07-.13-.01-.26-.02-.39-.02Z"/>
        <path class="cls-2" d="M212.34,44.66c-.25,0-.46.09-.64.28-.18.18-.27.4-.27.65s.09.46.27.64c.18.18.39.27.64.27s.47-.09.65-.27c.18-.18.28-.39.28-.64s-.09-.47-.28-.65c-.18-.18-.4-.28-.65-.28Z"/>
        <rect class="cls-2" x="211.74" y="48.87" width="1.23" height="8.63"/>
        <polygon class="cls-2" points="217.69 46.14 216.48 46.14 216.48 48.87 214.75 48.87 214.75 49.9 216.48 49.9 216.48 57.5 217.69 57.5 217.69 49.9 219.42 49.9 219.42 48.87 217.69 48.87 217.69 46.14"/>
        <path class="cls-2" d="M226.7,49.15c-.59-.34-1.27-.52-2.06-.52s-1.54.19-2.16.58c-.62.39-1.1.92-1.45,1.6-.35.68-.53,1.47-.53,2.36s.18,1.69.53,2.37c.36.68.85,1.21,1.49,1.59.64.38,1.37.57,2.2.57,1.02,0,1.86-.24,2.51-.72s1.09-1.17,1.32-2.08h-1.18c-.16.57-.46,1-.91,1.3s-1.03.45-1.73.45c-.97,0-1.73-.31-2.25-.94-.48-.57-.73-1.37-.78-2.37h6.84v-.61c0-.82-.16-1.54-.49-2.15-.33-.61-.78-1.09-1.37-1.44ZM221.76,52.45c.05-.43.14-.84.3-1.18.24-.5.58-.89,1.02-1.17.45-.27.97-.41,1.56-.41.81,0,1.46.25,1.95.76.49.51.74,1.17.74,2.01h-5.58Z"/>
        <polygon class="cls-2" points="232.59 46.14 231.38 46.14 231.38 48.87 229.65 48.87 229.65 49.9 231.38 49.9 231.38 57.5 232.59 57.5 232.59 49.9 234.32 49.9 234.32 48.87 232.59 48.87 232.59 46.14"/>
        <path class="cls-2" d="M239.63,52.82l-1.48-.37c-.94-.24-1.41-.69-1.41-1.35,0-.46.16-.82.49-1.07.33-.25.79-.37,1.4-.37s1.04.14,1.37.41c.33.27.5.67.52,1.18h1.19c-.01-.54-.15-1-.4-1.38-.26-.39-.61-.69-1.06-.9s-.98-.32-1.59-.32-1.16.1-1.63.3-.83.49-1.1.86-.39.81-.39,1.31c0,.58.18,1.07.55,1.46.37.39.93.68,1.68.87l1.48.37c.51.13.87.3,1.07.52s.3.5.3.86c0,.46-.19.83-.56,1.1-.37.27-.89.4-1.56.4-.59,0-1.07-.15-1.43-.44-.36-.29-.53-.69-.53-1.19h-1.18c0,.8.29,1.44.86,1.92s1.34.72,2.3.72c.65,0,1.23-.1,1.72-.31.49-.21.88-.51,1.15-.9.27-.39.41-.84.41-1.35,0-.62-.17-1.11-.53-1.48s-.9-.65-1.65-.84Z"/>
        <polygon class="cls-2" points="247.73 49.9 247.73 48.87 246 48.87 246 46.14 244.78 46.14 244.78 48.87 243.06 48.87 243.06 49.9 244.78 49.9 244.78 57.5 246 57.5 246 49.9 247.73 49.9"/>
        <path class="cls-2" d="M250.13,44.66c-.26,0-.48.09-.66.28-.18.18-.27.4-.27.65s.09.46.27.64c.18.18.4.27.66.27s.46-.09.64-.27.27-.39.27-.64-.09-.47-.27-.65-.39-.28-.64-.28Z"/>
        <path class="cls-2" d="M249.51,58.73c0,.52-.1.91-.29,1.17-.19.26-.5.38-.94.38-.13,0-.26,0-.38-.03-.12-.02-.28-.05-.45-.1l-.23,1.12c.23.06.42.1.58.12s.35.04.58.04c.75,0,1.33-.24,1.75-.7.42-.47.62-1.11.62-1.93v-9.93h-1.23v9.86Z"/>
        <path class="cls-2" d="M258.65,48.98c-.51-.23-1.11-.35-1.78-.35s-1.32.12-1.85.36c-.53.24-.95.57-1.25,1-.3.43-.45.93-.45,1.51h1.12c0-.58.21-1.03.62-1.35.42-.32,1-.48,1.77-.48.43,0,.81.07,1.16.2.34.13.62.36.82.69s.3.78.3,1.35v.29l-2.85.23c-1.01.08-1.8.36-2.37.84-.57.48-.86,1.11-.86,1.91,0,.75.26,1.36.78,1.84.52.48,1.23.71,2.15.71.73,0,1.37-.15,1.93-.45s.98-.73,1.24-1.27l.16,1.52h1.03v-5.58c0-.76-.15-1.38-.45-1.86s-.71-.84-1.22-1.07ZM259.12,53.57c0,.93-.25,1.68-.75,2.26-.5.58-1.21.87-2.12.87-.59,0-1.07-.13-1.43-.4-.36-.27-.54-.66-.54-1.19,0-.47.18-.88.54-1.21.36-.33.94-.54,1.75-.61l2.55-.2v.46Z"/>
        <path class="cls-2" d="M255.64,47.51c.24,0,.44-.09.61-.27s.26-.38.26-.61c0-.24-.09-.45-.26-.62s-.38-.27-.61-.27-.45.09-.62.27-.27.39-.27.62.09.44.27.61c.18.17.39.26.62.26Z"/>
        <path class="cls-2" d="M258.86,47.25c.17-.18.26-.38.26-.61,0-.24-.09-.45-.26-.62-.17-.18-.38-.27-.61-.27s-.45.09-.62.27c-.18.18-.27.39-.27.62s.09.44.27.61c.18.17.39.26.62.26s.44-.09.61-.27Z"/>
        <path class="cls-2" d="M267.17,48.64c-.63,0-1.21.15-1.74.45-.53.3-.94.73-1.22,1.27l-.18-1.5h-1.07v8.63h1.23v-4.51c0-.97.24-1.76.72-2.34s1.16-.88,2.04-.88c.71,0,1.28.2,1.7.61.42.4.63,1.11.63,2.12v5.01h1.23v-5.28c0-1.08-.26-1.95-.78-2.6s-1.38-.98-2.57-.98Z"/>
        <path class="cls-2" d="M276.58,52.82l-1.48-.37c-.94-.24-1.41-.69-1.41-1.35,0-.46.16-.82.49-1.07.33-.25.79-.37,1.4-.37s1.04.14,1.37.41c.33.27.5.67.52,1.18h1.19c-.01-.54-.15-1-.4-1.38-.26-.39-.61-.69-1.06-.9s-.98-.32-1.59-.32-1.16.1-1.63.3-.83.49-1.1.86-.39.81-.39,1.31c0,.58.18,1.07.55,1.46.37.39.93.68,1.68.87l1.48.37c.51.13.87.3,1.07.52s.3.5.3.86c0,.46-.19.83-.56,1.1-.37.27-.89.4-1.56.4-.59,0-1.07-.15-1.43-.44-.36-.29-.53-.69-.53-1.19h-1.18c0,.8.29,1.44.86,1.92s1.34.72,2.3.72c.65,0,1.23-.1,1.72-.31.49-.21.88-.51,1.15-.9.27-.39.41-.84.41-1.35,0-.62-.17-1.11-.53-1.48s-.9-.65-1.65-.84Z"/>
        <polygon class="cls-2" points="282.95 46.14 281.73 46.14 281.73 48.87 280.01 48.87 280.01 49.9 281.73 49.9 281.73 57.5 282.95 57.5 282.95 49.9 284.68 49.9 284.68 48.87 282.95 48.87 282.95 46.14"/>
      </g>
    </g>
  </g>
</svg>