<?xml version="1.0" encoding="UTF-8"?>
<svg id="Layer_1" xmlns="http://www.w3.org/2000/svg" viewBox="0 0 350 100">
  <defs>
    <style>
      .cls-1 {
        fill: #111;
      }

      .cls-2 {
        fill: #fff;
      }

      .cls-3 {
        fill: #20a5fb;
      }
    </style>
  </defs>
  <g>
    <path class="cls-1" d="M99.92,27.01c-1.87-1.06-4.04-1.6-6.51-1.6h-9.51v25.14h9.85c2.4,0,4.51-.53,6.34-1.6,1.82-1.06,3.25-2.54,4.28-4.42,1.03-1.88,1.55-4.04,1.55-6.49s-.53-4.69-1.6-6.59c-1.06-1.9-2.53-3.39-4.4-4.45ZM99.29,42.02c-.54,1.11-1.33,1.96-2.36,2.55-1.03.59-2.27.88-3.72.88h-3.8v-14.95h3.46c1.52,0,2.81.3,3.89.9,1.08.6,1.9,1.46,2.48,2.58.58,1.12.87,2.47.87,4.06s-.27,2.87-.82,3.97Z"/>
    <path class="cls-1" d="M112.03,30.92c.82,0,1.51-.29,2.09-.87.58-.58.87-1.29.87-2.12s-.29-1.54-.87-2.11c-.58-.57-1.27-.85-2.09-.85s-1.55.28-2.12.85c-.58.57-.87,1.27-.87,2.11s.29,1.55.87,2.12c.58.58,1.28.87,2.12.87Z"/>
    <rect class="cls-1" x="109.45" y="33.57" width="5.23" height="16.98"/>
    <path class="cls-1" d="M136.52,49.46v-15.9h-4.93l-.26,1.71c-.38-.58-.92-1.07-1.63-1.47-.96-.54-2.11-.82-3.45-.82-1.59,0-3,.37-4.23,1.12-1.23.75-2.2,1.78-2.89,3.09-.69,1.31-1.04,2.83-1.04,4.55s.34,3.19,1.02,4.48c.68,1.29,1.62,2.3,2.84,3.02,1.21.73,2.61,1.09,4.2,1.09,1.36,0,2.56-.27,3.6-.82.64-.33,1.15-.73,1.53-1.19v2.21c0,1.2-.37,2.15-1.1,2.85-.74.7-1.74,1.05-3.01,1.05-1.16,0-2.07-.27-2.75-.8-.68-.53-1.04-1.27-1.09-2.23h-5.3c.25,2.4,1.19,4.3,2.82,5.69s3.75,2.09,6.35,2.09c1.95,0,3.61-.39,4.99-1.17,1.38-.78,2.45-1.9,3.19-3.36.75-1.46,1.12-3.2,1.12-5.21ZM130.8,43.81c-.33.62-.79,1.11-1.39,1.46-.6.35-1.3.53-2.09.53s-1.45-.18-2.04-.54c-.59-.36-1.05-.85-1.39-1.48-.34-.62-.51-1.34-.51-2.16s.16-1.53.49-2.14c.33-.61.79-1.09,1.38-1.43.59-.34,1.27-.51,2.04-.51.81,0,1.52.17,2.12.51.6.34,1.06.81,1.39,1.41.33.6.49,1.32.49,2.16s-.16,1.57-.49,2.19Z"/>
    <path class="cls-1" d="M143.38,30.92c.82,0,1.51-.29,2.09-.87.58-.58.87-1.29.87-2.12s-.29-1.54-.87-2.11c-.58-.57-1.27-.85-2.09-.85s-1.55.28-2.12.85c-.58.57-.87,1.27-.87,2.11s.29,1.55.87,2.12c.58.58,1.28.87,2.12.87Z"/>
    <rect class="cls-1" x="140.8" y="33.57" width="5.23" height="16.98"/>
    <polygon class="cls-1" points="157.17 50.55 157.17 37.91 160.4 37.91 160.4 33.57 157.17 33.57 157.17 28.3 151.94 28.3 151.94 33.57 148.71 33.57 148.71 37.91 151.94 37.91 151.94 50.55 157.17 50.55"/>
    <path class="cls-1" d="M171.63,50.23c1.01-.51,1.65-1.15,1.92-1.92l.34,2.24h4.62v-9.92c0-1.63-.3-3.01-.9-4.14-.6-1.13-1.47-1.99-2.62-2.58-1.14-.59-2.54-.88-4.19-.88s-3.02.26-4.23.78c-1.21.52-2.15,1.26-2.8,2.21s-.98,2.07-.98,3.36h4.35c0-.77.29-1.36.87-1.77.58-.41,1.42-.61,2.53-.61.63,0,1.16.1,1.58.29.42.19.74.48.97.85.23.37.34.84.34,1.41v.27l-4.76.37c-2.04.16-3.6.7-4.67,1.63-1.08.93-1.61,2.17-1.61,3.74,0,1.65.53,2.97,1.58,3.96s2.47,1.48,4.26,1.48c1.27,0,2.41-.25,3.41-.76ZM167.7,45.32c0-.54.23-.96.7-1.24.46-.28,1.26-.47,2.4-.56l2.65-.24v.92c0,.97-.32,1.7-.95,2.19-.63.49-1.45.73-2.45.73-.79,0-1.38-.15-1.77-.44-.39-.29-.58-.75-.58-1.36Z"/>
    <rect class="cls-1" x="182.58" y="24.94" width="5.23" height="25.61"/>
    <polygon class="cls-1" points="193.72 50.55 198.95 50.55 198.95 37.91 202.18 37.91 202.18 33.57 198.95 33.57 198.95 28.3 193.72 28.3 193.72 33.57 190.5 33.57 190.5 37.91 193.72 37.91 193.72 50.55"/>
    <path class="cls-1" d="M214.85,50.3c1.13-.46,2.02-1.14,2.65-2.02.63-.88.95-1.92.95-3.13,0-1.36-.37-2.39-1.1-3.11-.74-.71-1.81-1.22-3.21-1.51l-3.16-.68c-1.22-.27-1.83-.77-1.83-1.49,0-.45.18-.82.53-1.1.35-.28.82-.42,1.41-.42.63,0,1.12.18,1.46.53.34.35.51.82.51,1.41h4.96c0-1.15-.28-2.16-.85-3.02-.57-.86-1.35-1.53-2.36-2-1.01-.48-2.17-.71-3.48-.71s-2.57.22-3.63.66c-1.06.44-1.91,1.08-2.53,1.9-.62.83-.93,1.83-.93,3.01,0,1.49.38,2.62,1.15,3.38.77.76,1.94,1.31,3.5,1.65l3.13.68c.63.14,1.05.33,1.24.58.19.25.29.5.29.75,0,.43-.19.78-.58,1.05-.39.27-.98.41-1.8.41s-1.4-.17-1.83-.51-.67-.8-.71-1.39h-4.96c0,1.72.66,3.12,1.97,4.2,1.31,1.08,3.09,1.61,5.33,1.61,1.47,0,2.77-.23,3.91-.7Z"/>
    <polygon class="cls-1" points="226.74 46.3 228.75 44.2 232.55 50.55 238.6 50.55 232.41 40.29 238.8 33.57 232.24 33.57 226.74 39.68 226.74 24.94 221.51 24.94 221.51 50.55 226.74 50.55 226.74 46.3"/>
    <path class="cls-1" d="M246,51.94c-.23.61-.48,1.09-.75,1.43-.27.34-.6.58-.99.73-.39.15-.87.22-1.46.22h-2.89v4.38c.52.16,1.07.28,1.65.36.58.08,1.18.12,1.82.12,1.49,0,2.75-.39,3.75-1.17,1.01-.78,1.86-2.03,2.56-3.75l8.63-20.69h-5.44l-4.1,10.92-3.72-10.92h-5.6l6.83,17.57-.3.81Z"/>
    <path class="cls-1" d="M262.85,49.91c1.2.72,2.62,1.09,4.25,1.09,1.22,0,2.33-.24,3.31-.73.98-.49,1.7-1.12,2.16-1.89l.27,2.17h4.93v-25.61h-5.23v10.19c-.5-.63-1.21-1.14-2.12-1.53-.92-.38-1.91-.58-2.97-.58-1.72,0-3.21.39-4.47,1.15-1.26.77-2.23,1.84-2.9,3.21-.68,1.37-1.02,2.96-1.02,4.77s.33,3.35,1,4.67c.67,1.32,1.6,2.35,2.8,3.07ZM264.8,39.75c.33-.63.8-1.13,1.41-1.49.61-.36,1.32-.54,2.14-.54s1.53.18,2.16.53c.62.35,1.11.84,1.46,1.48.35.63.53,1.38.53,2.24s-.18,1.58-.53,2.22c-.35.65-.84,1.14-1.46,1.49-.62.35-1.34.53-2.16.53s-1.53-.18-2.14-.54c-.61-.36-1.08-.86-1.41-1.49-.33-.63-.49-1.37-.49-2.21s.16-1.57.49-2.21Z"/>
    <path class="cls-1" d="M294.61,35.13c-.5-.63-1.21-1.14-2.12-1.53-.92-.38-1.91-.58-2.97-.58-1.72,0-3.21.39-4.47,1.15-1.26.77-2.23,1.84-2.9,3.21-.68,1.37-1.02,2.96-1.02,4.77s.33,3.35,1,4.67c.67,1.32,1.6,2.35,2.8,3.07s2.62,1.09,4.25,1.09c1.22,0,2.33-.24,3.31-.73.98-.49,1.7-1.12,2.16-1.89l.27,2.17h4.93v-25.61h-5.23v10.19ZM294.05,44.18c-.35.65-.84,1.14-1.46,1.49-.62.35-1.34.53-2.16.53s-1.53-.18-2.14-.54c-.61-.36-1.08-.86-1.41-1.49-.33-.63-.49-1.37-.49-2.21s.16-1.57.49-2.21c.33-.63.8-1.13,1.41-1.49.61-.36,1.32-.54,2.14-.54s1.53.18,2.16.53c.62.35,1.11.84,1.46,1.48.35.63.53,1.38.53,2.24s-.18,1.58-.53,2.22Z"/>
    <path class="cls-1" d="M307.38,44.84c-.86,0-1.6.3-2.21.9-.61.6-.92,1.33-.92,2.19s.31,1.56.92,2.16,1.35.9,2.21.9,1.57-.3,2.19-.9.93-1.32.93-2.16-.31-1.59-.93-2.19c-.62-.6-1.35-.9-2.19-.9Z"/>
    <path class="cls-1" d="M324.2,40.53l-3.16-.68c-1.22-.27-1.83-.77-1.83-1.49,0-.45.18-.82.53-1.1.35-.28.82-.42,1.41-.42.63,0,1.12.18,1.46.53.34.35.51.82.51,1.41h4.96c0-1.15-.28-2.16-.85-3.02-.57-.86-1.35-1.53-2.36-2-1.01-.48-2.17-.71-3.48-.71s-2.57.22-3.63.66c-1.06.44-1.91,1.08-2.53,1.9-.62.83-.93,1.83-.93,3.01,0,1.49.39,2.62,1.15,3.38.77.76,1.94,1.31,3.5,1.65l3.13.68c.63.14,1.05.33,1.24.58.19.25.29.5.29.75,0,.43-.19.78-.58,1.05-.39.27-.99.41-1.8.41s-1.4-.17-1.83-.51c-.43-.34-.67-.8-.71-1.39h-4.96c0,1.72.66,3.12,1.97,4.2,1.31,1.08,3.09,1.61,5.33,1.61,1.47,0,2.77-.23,3.91-.7,1.13-.46,2.02-1.14,2.65-2.02.63-.88.95-1.92.95-3.13,0-1.36-.37-2.39-1.1-3.11s-1.81-1.22-3.21-1.51Z"/>
    <path class="cls-1" d="M343.29,44.81c-.18.61-.6,1.09-1.26,1.43-.66.34-1.48.51-2.48.51-1.36,0-2.36-.38-3.01-1.14-.45-.52-.73-1.25-.87-2.17l12.34-.06v-1.32c0-1.86-.35-3.46-1.05-4.81-.7-1.35-1.7-2.39-2.99-3.13-1.29-.74-2.83-1.1-4.62-1.1s-3.2.39-4.52,1.15c-1.31.77-2.34,1.83-3.07,3.18-.74,1.35-1.1,2.9-1.1,4.67s.38,3.29,1.14,4.64c.76,1.35,1.8,2.41,3.13,3.18,1.32.77,2.84,1.15,4.53,1.15,2.33,0,4.28-.56,5.84-1.68,1.56-1.12,2.49-2.62,2.79-4.5h-4.79ZM337.23,37.78c.55-.34,1.27-.51,2.16-.51,1.06,0,1.9.27,2.51.8.61.53.92,1.25.92,2.16h-7.07c.06-.32.14-.6.24-.87.27-.71.68-1.24,1.24-1.58Z"/>
    <polygon class="cls-1" points="84.37 76.5 92 76.5 92 74.92 86.06 74.92 86.06 70.96 91.41 70.96 91.41 69.46 86.06 69.46 86.06 65.55 92 65.55 92 63.99 84.37 63.99 84.37 76.5"/>
    <path class="cls-1" d="M98.8,67.8c-.6,0-1.15.14-1.65.41-.5.27-.89.65-1.15,1.13l-.17-1.3h-1.47v8.46h1.63v-4.48c0-.83.21-1.49.63-1.99.42-.5,1.01-.74,1.77-.74.62,0,1.12.19,1.49.56.37.37.55.99.55,1.84v4.81h1.63v-5.17c0-1.08-.27-1.94-.8-2.58-.53-.63-1.35-.95-2.46-.95Z"/>
    <path class="cls-1" d="M113.17,71.81l-1.49-.36c-.83-.21-1.25-.59-1.25-1.16,0-.38.14-.68.41-.9.28-.22.67-.33,1.18-.33s.88.12,1.16.36c.28.24.42.58.43,1.02h1.56c-.01-.54-.15-1.01-.41-1.4-.26-.39-.62-.7-1.07-.92-.46-.22-.99-.33-1.62-.33s-1.17.1-1.65.31c-.48.21-.85.5-1.12.88-.27.38-.41.83-.41,1.35,0,.62.18,1.12.54,1.5.36.38.92.66,1.67.85l1.49.35c.44.12.74.27.91.45.17.18.25.42.25.69,0,.38-.16.68-.47.91-.31.22-.76.34-1.33.34-.53,0-.95-.12-1.26-.37-.31-.25-.47-.59-.47-1.01h-1.56c0,.81.29,1.45.88,1.94.59.48,1.38.73,2.37.73.68,0,1.27-.11,1.77-.32.5-.21.9-.52,1.18-.92.29-.4.43-.86.43-1.39,0-.62-.18-1.12-.54-1.48-.36-.36-.89-.63-1.61-.79Z"/>
    <path class="cls-1" d="M120.95,72.76c-.15.37-.29.73-.41,1.07-.12.35-.22.66-.3.95-.07-.25-.16-.56-.28-.91-.12-.35-.25-.72-.4-1.12l-1.85-4.72h-1.73l3.41,8.46h1.61l3.53-8.46h-1.7l-1.89,4.72Z"/>
    <path class="cls-1" d="M130.86,74.97c-.4.25-.92.38-1.56.38-.86,0-1.53-.27-1.99-.82-.4-.47-.63-1.12-.68-1.95l6.54-.02v-.61c0-.84-.16-1.57-.49-2.2-.33-.62-.79-1.11-1.38-1.45-.59-.35-1.29-.52-2.1-.52s-1.54.19-2.15.57c-.62.38-1.1.91-1.45,1.57-.35.67-.53,1.45-.53,2.34s.18,1.65.54,2.31c.36.66.85,1.18,1.49,1.56s1.36.56,2.18.56c1.05,0,1.91-.25,2.59-.74.68-.5,1.12-1.19,1.33-2.09h-1.52c-.14.48-.41.85-.81,1.11ZM127.81,69.52c.39-.24.85-.35,1.39-.35.72,0,1.29.21,1.71.64.43.43.64.99.64,1.7h-4.88c.05-.35.13-.66.25-.94.2-.46.5-.8.88-1.04Z"/>
    <path class="cls-1" d="M139.62,67.8c-.6,0-1.15.14-1.65.41-.5.27-.89.65-1.15,1.13l-.17-1.3h-1.47v8.46h1.63v-4.48c0-.83.21-1.49.63-1.99.42-.5,1.01-.74,1.77-.74.62,0,1.12.19,1.49.56.37.37.55.99.55,1.84v4.81h1.63v-5.17c0-1.08-.27-1.94-.8-2.58-.53-.63-1.35-.95-2.46-.95Z"/>
    <path class="cls-1" d="M148.99,71.81l-1.49-.36c-.83-.21-1.25-.59-1.25-1.16,0-.38.14-.68.41-.9.28-.22.67-.33,1.18-.33s.88.12,1.16.36c.28.24.42.58.43,1.02h1.56c-.01-.54-.15-1.01-.41-1.4-.26-.39-.62-.7-1.07-.92-.46-.22-.99-.33-1.62-.33s-1.17.1-1.65.31c-.48.21-.85.5-1.12.88-.27.38-.41.83-.41,1.35,0,.62.18,1.12.54,1.5.36.38.92.66,1.67.85l1.49.35c.44.12.74.27.91.45.17.18.25.42.25.69,0,.38-.16.68-.47.91-.31.22-.76.34-1.33.34-.53,0-.95-.12-1.26-.37-.31-.25-.47-.59-.47-1.01h-1.56c0,.81.29,1.45.88,1.94.59.48,1.38.73,2.37.73.68,0,1.27-.11,1.77-.32.5-.21.9-.52,1.18-.92.29-.4.43-.86.43-1.39,0-.62-.18-1.12-.54-1.48-.36-.36-.89-.63-1.61-.79Z"/>
    <polygon class="cls-1" points="158.52 68.04 154.77 72.02 154.77 63.77 153.14 63.77 153.14 76.5 154.77 76.5 154.77 74.09 156.21 72.59 158.68 76.5 160.55 76.5 157.33 71.41 160.56 68.04 158.52 68.04"/>
    <rect class="cls-1" x="166.96" y="68.04" width="1.63" height="8.46"/>
    <path class="cls-1" d="M167.76,63.89c-.29,0-.54.1-.75.31-.21.21-.32.46-.32.76s.11.54.32.75c.21.21.46.32.75.32s.55-.11.76-.32c.21-.21.31-.46.31-.75s-.1-.55-.31-.76c-.21-.21-.46-.31-.76-.31Z"/>
    <path class="cls-1" d="M175.56,67.8c-.6,0-1.15.14-1.65.41-.5.27-.89.65-1.15,1.13l-.17-1.3h-1.47v8.46h1.63v-4.48c0-.83.21-1.49.63-1.99.42-.5,1.01-.74,1.77-.74.62,0,1.12.19,1.49.56.37.37.55.99.55,1.84v4.81h1.63v-5.17c0-1.08-.27-1.94-.8-2.58-.53-.63-1.35-.95-2.46-.95Z"/>
    <polygon class="cls-1" points="183.62 65.39 182 65.39 182 68.04 180.34 68.04 180.34 69.4 182 69.4 182 76.5 183.62 76.5 183.62 69.4 185.28 69.4 185.28 68.04 183.62 68.04 183.62 65.39"/>
    <path class="cls-1" d="M192.06,74.97c-.4.25-.92.38-1.56.38-.86,0-1.53-.27-1.99-.82-.4-.47-.63-1.12-.68-1.95l6.54-.02v-.61c0-.84-.16-1.57-.49-2.2-.33-.62-.79-1.11-1.38-1.45-.59-.35-1.29-.52-2.1-.52s-1.54.19-2.15.57c-.62.38-1.1.91-1.45,1.57-.35.67-.53,1.45-.53,2.34s.18,1.65.54,2.31c.36.66.85,1.18,1.49,1.56.63.37,1.36.56,2.18.56,1.05,0,1.91-.25,2.59-.74.68-.5,1.12-1.19,1.33-2.09h-1.52c-.14.48-.41.85-.81,1.11ZM189.01,69.52c.39-.24.85-.35,1.39-.35.71,0,1.29.21,1.71.64.43.43.64.99.64,1.7h-4.88c.05-.35.13-.66.25-.94.2-.46.5-.8.88-1.04Z"/>
    <path class="cls-1" d="M202.78,69.5c-.23-.48-.56-.86-1-1.16-.54-.36-1.19-.54-1.95-.54-.82,0-1.53.19-2.13.57-.6.38-1.06.89-1.38,1.53-.32.64-.48,1.36-.48,2.15s.16,1.51.48,2.14c.32.63.77,1.14,1.36,1.51.59.37,1.29.56,2.09.56.76,0,1.43-.18,2.01-.54.43-.27.75-.61.99-1.03v1.7c0,.81-.24,1.45-.72,1.93-.48.48-1.12.72-1.91.72-.7,0-1.28-.17-1.73-.52s-.73-.83-.83-1.45h-1.63c.16,1.07.61,1.91,1.35,2.53.74.61,1.68.92,2.84.92.86,0,1.61-.18,2.25-.54.63-.36,1.12-.86,1.47-1.51.35-.65.52-1.42.52-2.31v-8.11h-1.45l-.12,1.46ZM202.36,73.49c-.21.43-.52.76-.91,1s-.86.36-1.42.36c-.52,0-.97-.13-1.36-.38-.39-.25-.69-.59-.9-1.02-.21-.43-.32-.91-.32-1.44s.1-.99.31-1.41c.21-.42.5-.76.89-1.01.39-.25.85-.38,1.39-.38s1.03.12,1.42.36.69.57.9.99c.21.42.31.9.31,1.45s-.11,1.04-.32,1.47Z"/>
    <path class="cls-1" d="M210.87,67.87c-.66,0-1.21.18-1.64.53-.33.26-.56.58-.71.95l-.1-1.29h-1.52v8.44h1.63v-4.48c0-.82.22-1.45.67-1.89.44-.44,1.05-.67,1.82-.67h.73v-1.49c-.16-.03-.31-.06-.44-.08-.13-.02-.27-.03-.42-.03Z"/>
    <path class="cls-1" d="M214.22,63.89c-.29,0-.54.1-.75.31-.21.21-.32.46-.32.76s.11.54.32.75c.21.21.46.32.75.32s.55-.11.76-.32c.21-.21.31-.46.31-.75s-.1-.55-.31-.76c-.21-.21-.46-.31-.76-.31Z"/>
    <rect class="cls-1" x="213.43" y="68.04" width="1.63" height="8.46"/>
    <polygon class="cls-1" points="219.96 65.39 218.34 65.39 218.34 68.04 216.68 68.04 216.68 69.4 218.34 69.4 218.34 76.5 219.96 76.5 219.96 69.4 221.62 69.4 221.62 68.04 219.96 68.04 219.96 65.39"/>
    <path class="cls-1" d="M228.4,74.97c-.4.25-.92.38-1.56.38-.86,0-1.53-.27-1.99-.82-.4-.47-.63-1.12-.68-1.95l6.54-.02v-.61c0-.84-.16-1.57-.49-2.2-.33-.62-.79-1.11-1.38-1.45-.59-.35-1.29-.52-2.1-.52s-1.54.19-2.15.57c-.62.38-1.1.91-1.45,1.57-.35.67-.53,1.45-.53,2.34s.18,1.65.54,2.31c.36.66.85,1.18,1.49,1.56.63.37,1.36.56,2.18.56,1.05,0,1.91-.25,2.59-.74.68-.5,1.12-1.19,1.33-2.09h-1.52c-.14.48-.41.85-.81,1.11ZM225.35,69.52c.39-.24.85-.35,1.39-.35.71,0,1.29.21,1.71.64.43.43.64.99.64,1.7h-4.88c.05-.35.13-.66.25-.94.2-.46.5-.8.88-1.04Z"/>
    <polygon class="cls-1" points="235.01 65.39 233.39 65.39 233.39 68.04 231.73 68.04 231.73 69.4 233.39 69.4 233.39 76.5 235.01 76.5 235.01 69.4 236.67 69.4 236.67 68.04 235.01 68.04 235.01 65.39"/>
    <path class="cls-1" d="M242.1,71.81l-1.49-.36c-.83-.21-1.25-.59-1.25-1.16,0-.38.14-.68.42-.9.28-.22.67-.33,1.18-.33s.88.12,1.16.36c.28.24.42.58.43,1.02h1.56c-.01-.54-.15-1.01-.41-1.4-.26-.39-.62-.7-1.07-.92-.46-.22-.99-.33-1.62-.33s-1.17.1-1.65.31c-.48.21-.85.5-1.12.88s-.41.83-.41,1.35c0,.62.18,1.12.55,1.5.36.38.92.66,1.67.85l1.49.35c.44.12.74.27.91.45.17.18.25.42.25.69,0,.38-.16.68-.47.91-.31.22-.76.34-1.33.34-.53,0-.95-.12-1.26-.37-.31-.25-.47-.59-.47-1.01h-1.56c0,.81.29,1.45.88,1.94.59.48,1.38.73,2.37.73.68,0,1.27-.11,1.77-.32s.9-.52,1.18-.92c.29-.4.43-.86.43-1.39,0-.62-.18-1.12-.54-1.48-.36-.36-.89-.63-1.61-.79Z"/>
    <polygon class="cls-1" points="250.27 69.4 250.27 68.04 248.61 68.04 248.61 65.39 246.98 65.39 246.98 68.04 245.32 68.04 245.32 69.4 246.98 69.4 246.98 76.5 248.61 76.5 248.61 69.4 250.27 69.4"/>
    <path class="cls-1" d="M252.71,63.89c-.3,0-.55.1-.76.31-.21.21-.31.46-.31.76s.1.54.31.75c.21.21.46.32.76.32s.54-.11.75-.32c.21-.21.32-.46.32-.75s-.11-.55-.32-.76c-.21-.21-.46-.31-.75-.31Z"/>
    <path class="cls-1" d="M251.89,77.59c0,.47-.08.82-.25,1.06-.17.23-.45.35-.84.35-.13,0-.25,0-.36-.03-.12-.02-.25-.05-.42-.1l-.28,1.47c.24.06.45.1.62.12.17.02.36.03.57.03.82,0,1.45-.25,1.9-.74.45-.5.67-1.16.67-2.01v-9.7h-1.63v9.55Z"/>
    <path class="cls-1" d="M257.5,65.07c-.2.2-.29.44-.29.7s.1.51.29.71c.2.2.43.29.71.29s.5-.1.69-.3c.2-.2.29-.44.29-.7s-.1-.5-.29-.7c-.2-.2-.43-.3-.69-.3s-.51.1-.71.3Z"/>
    <path class="cls-1" d="M260.28,65.07c-.2.2-.29.44-.29.7s.1.51.29.71c.2.2.43.29.71.29s.5-.1.69-.3c.2-.2.29-.44.29-.7s-.1-.5-.29-.7c-.2-.2-.43-.3-.69-.3s-.51.1-.71.3Z"/>
    <path class="cls-1" d="M261.37,68.17c-.53-.25-1.14-.37-1.84-.37s-1.36.12-1.91.36-.97.58-1.27,1.02c-.3.44-.45.95-.45,1.54h1.42c0-.52.19-.92.56-1.2.37-.28.9-.42,1.58-.42.38,0,.72.06,1.02.18.3.12.54.32.71.61.17.28.26.66.26,1.13v.24l-2.66.21c-.99.08-1.76.35-2.32.82-.55.47-.83,1.09-.83,1.86s.26,1.38.77,1.85c.51.47,1.22.71,2.12.71.68,0,1.29-.14,1.82-.42s.91-.67,1.13-1.15l.17,1.37h1.38v-5.31c0-.76-.15-1.39-.44-1.89-.29-.5-.7-.88-1.23-1.12ZM261.46,72.85c0,.8-.22,1.43-.66,1.89-.44.47-1.04.7-1.82.7-.53,0-.95-.11-1.25-.34-.31-.22-.46-.56-.46-1.01,0-.42.16-.76.48-1.02.32-.27.83-.43,1.55-.5l2.16-.17v.45Z"/>
    <path class="cls-1" d="M269.9,67.8c-.6,0-1.15.14-1.65.41-.5.27-.89.65-1.15,1.13l-.17-1.3h-1.47v8.46h1.63v-4.48c0-.83.21-1.49.63-1.99.42-.5,1.01-.74,1.77-.74.62,0,1.12.19,1.49.56.37.37.55.99.55,1.84v4.81h1.63v-5.17c0-1.08-.27-1.94-.8-2.58-.53-.63-1.35-.95-2.46-.95Z"/>
    <path class="cls-1" d="M279.28,71.81l-1.49-.36c-.83-.21-1.25-.59-1.25-1.16,0-.38.14-.68.41-.9.28-.22.67-.33,1.18-.33s.88.12,1.16.36c.28.24.42.58.43,1.02h1.56c-.01-.54-.15-1.01-.41-1.4-.26-.39-.62-.7-1.07-.92-.46-.22-.99-.33-1.62-.33s-1.17.1-1.65.31c-.48.21-.85.5-1.12.88-.27.38-.41.83-.41,1.35,0,.62.18,1.12.54,1.5.36.38.92.66,1.67.85l1.49.35c.44.12.74.27.91.45.17.18.25.42.25.69,0,.38-.16.68-.47.91-.31.22-.76.34-1.33.34-.53,0-.95-.12-1.26-.37-.31-.25-.47-.59-.47-1.01h-1.56c0,.81.29,1.45.88,1.94.59.48,1.38.73,2.37.73.68,0,1.27-.11,1.77-.32.5-.21.9-.52,1.18-.92.29-.4.43-.86.43-1.39,0-.62-.18-1.12-.54-1.48-.36-.36-.89-.63-1.61-.79Z"/>
    <polygon class="cls-1" points="285.78 65.39 284.15 65.39 284.15 68.04 282.49 68.04 282.49 69.4 284.15 69.4 284.15 76.5 285.78 76.5 285.78 69.4 287.44 69.4 287.44 68.04 285.78 68.04 285.78 65.39"/>
  </g>
  <circle class="cls-3" cx="31.14" cy="48.71" r="29.22"/>
  <path class="cls-2" d="M31.14,57.92c-3.81,0-7.9-1.49-11.84-4.3-2.95-2.1-4.77-4.19-4.84-4.28-.31-.36-.31-.89,0-1.25.08-.09,1.9-2.17,4.84-4.28,3.94-2.82,8.04-4.3,11.84-4.3s7.9,1.49,11.84,4.3c2.95,2.1,4.77,4.19,4.84,4.28.31.36.31.89,0,1.25-.08.09-1.9,2.17-4.84,4.28-3.94,2.82-8.04,4.3-11.84,4.3Z"/>
  <path class="cls-1" d="M32.21,44.25c-.75,2.5.6,3.83,3.37,3.45.65,1.58-.11,3.74-1.71,4.83-1.95,1.32-4.34,1.12-6.01-.51-1.55-1.52-1.83-4.04-.66-5.86,1.09-1.7,3.32-2.56,5.01-1.9Z"/>
</svg>