<?xml version="1.0" encoding="UTF-8"?>
<svg id="Layer_2" xmlns="http://www.w3.org/2000/svg" viewBox="0 0 310.99 41.83">
  <defs>
    <style>
      .cls-1 {
        fill: #fff;
      }
    </style>
  </defs>
  <g id="Layer_1-2" data-name="Layer_1">
    <g>
      <path class="cls-1" d="M25.71,3.33c-3-1.71-6.48-2.56-10.44-2.56H0v40.35h15.81c3.85,0,7.24-.85,10.17-2.56,2.93-1.71,5.22-4.07,6.87-7.09,1.65-3.02,2.48-6.49,2.48-10.42s-.85-7.53-2.56-10.58c-1.71-3.05-4.06-5.43-7.06-7.14ZM24.7,27.43c-.87,1.78-2.14,3.15-3.79,4.09-1.65.95-3.65,1.42-5.97,1.42h-6.11V8.94h5.56c2.44,0,4.52.48,6.24,1.45,1.73.96,3.05,2.34,3.98,4.14.93,1.8,1.39,3.97,1.39,6.52s-.44,4.6-1.31,6.38Z"/>
      <path class="cls-1" d="M60.42,14.83c-2.25-1.2-4.84-1.8-7.74-1.8s-5.5.6-7.77,1.8c-2.27,1.2-4.05,2.88-5.34,5.04-1.29,2.16-1.94,4.68-1.94,7.55s.65,5.38,1.94,7.53c1.29,2.15,3.07,3.82,5.34,5.02,2.27,1.2,4.86,1.8,7.77,1.8s5.49-.6,7.74-1.8c2.25-1.2,4.03-2.87,5.32-5.02,1.29-2.14,1.94-4.65,1.94-7.53s-.65-5.39-1.94-7.55c-1.29-2.16-3.06-3.84-5.32-5.04ZM58.4,31c-.55,1.04-1.31,1.84-2.29,2.4-.98.56-2.13.85-3.44.85s-2.45-.28-3.44-.85c-.98-.56-1.75-1.36-2.32-2.4-.56-1.04-.85-2.24-.85-3.63s.28-2.58.85-3.6c.56-1.02,1.34-1.81,2.32-2.37.98-.56,2.13-.85,3.44-.85s2.45.28,3.44.85c.98.56,1.74,1.35,2.29,2.37.55,1.02.82,2.22.82,3.6s-.27,2.59-.82,3.63Z"/>
      <rect class="cls-1" x="71.16" width="8.4" height="41.12"/>
      <polygon class="cls-1" points="95.54 5.4 87.14 5.4 87.14 13.85 81.96 13.85 81.96 20.83 87.14 20.83 87.14 41.12 95.54 41.12 95.54 20.83 100.72 20.83 100.72 13.85 95.54 13.85 95.54 5.4"/>
      <path class="cls-1" d="M119.91,12.98c-1.78,0-3.41.33-4.88.98-1.47.65-2.63,1.56-3.46,2.73l-.54-2.84h-7.91v27.27h8.4v-14.94c0-1.71.49-3.06,1.47-4.06.98-1,2.31-1.5,3.98-1.5,1.45,0,2.62.52,3.49,1.55s1.31,2.41,1.31,4.12v14.83h8.4v-16.85c0-3.56-.9-6.33-2.7-8.32-1.8-1.98-4.32-2.97-7.55-2.97Z"/>
      <path class="cls-1" d="M153.92,14.4c-1.84-.95-4.08-1.42-6.73-1.42s-4.85.42-6.79,1.25c-1.95.84-3.44,2.02-4.5,3.54-1.05,1.53-1.58,3.33-1.58,5.4h6.98c0-1.24.46-2.18,1.39-2.84.93-.65,2.28-.98,4.06-.98,1.02,0,1.86.15,2.54.46.67.31,1.19.76,1.55,1.36.36.6.55,1.35.55,2.26v.44l-7.63.6c-3.27.25-5.77,1.13-7.5,2.62-1.73,1.49-2.59,3.49-2.59,6,0,2.65.85,4.77,2.54,6.35,1.69,1.58,3.97,2.37,6.84,2.37,2.04,0,3.86-.41,5.48-1.23,1.62-.82,2.64-1.84,3.08-3.08l.55,3.6h7.42v-15.92c0-2.62-.48-4.83-1.44-6.65-.96-1.82-2.36-3.2-4.2-4.14ZM151.43,30.92c0,1.56-.51,2.74-1.53,3.52-1.02.78-2.33,1.17-3.93,1.17-1.27,0-2.22-.24-2.84-.71-.62-.47-.93-1.2-.93-2.18,0-.87.37-1.54,1.12-1.99.74-.45,2.03-.75,3.84-.9l4.25-.38v1.47Z"/>
      <path class="cls-1" d="M197.4,12.98c-2.33,0-4.33.6-6,1.8-1.17.84-2.03,1.86-2.6,3.06-.64-1.19-1.46-2.22-2.48-3.06-1.45-1.2-3.38-1.8-5.78-1.8-2.25,0-4.09.49-5.51,1.47-1.05.73-1.86,1.49-2.43,2.27l-.57-2.87h-7.85v27.27h8.4v-14.61c0-1.53.24-2.72.71-3.57.47-.85,1.08-1.45,1.83-1.8.74-.34,1.52-.52,2.32-.52,1.34,0,2.42.41,3.22,1.23.8.82,1.2,2.08,1.2,3.79v15.49h8.4v-14.61c0-1.56.24-2.77.71-3.63.47-.85,1.07-1.45,1.8-1.8.73-.35,1.49-.52,2.29-.52,1.34,0,2.43.42,3.24,1.25.82.84,1.23,2.11,1.23,3.82v15.49h8.4v-17.83c0-3.13-.87-5.63-2.62-7.5-1.75-1.87-4.38-2.81-7.91-2.81Z"/>
      <path class="cls-1" d="M229.36,12.98c-1.78,0-3.41.33-4.88.98-1.47.65-2.63,1.56-3.46,2.73l-.54-2.84h-7.91v27.27h8.4v-14.94c0-1.71.49-3.06,1.47-4.06.98-1,2.31-1.5,3.98-1.5,1.45,0,2.62.52,3.49,1.55s1.31,2.41,1.31,4.12v14.83h8.4v-16.85c0-3.56-.9-6.33-2.7-8.32-1.8-1.98-4.32-2.97-7.55-2.97Z"/>
      <path class="cls-1" d="M249.48,31.96c-1.38,0-2.56.48-3.54,1.45-.98.96-1.47,2.14-1.47,3.52s.49,2.5,1.47,3.46c.98.96,2.16,1.45,3.54,1.45s2.52-.48,3.52-1.45c1-.96,1.5-2.12,1.5-3.46s-.5-2.55-1.5-3.52c-1-.96-2.17-1.45-3.52-1.45Z"/>
      <path class="cls-1" d="M274.57,25.03l-5.07-1.09c-1.96-.44-2.94-1.24-2.94-2.4,0-.73.28-1.32.85-1.77.56-.45,1.32-.68,2.26-.68,1.02,0,1.8.28,2.35.85.55.56.82,1.32.82,2.26h7.96c0-1.85-.46-3.47-1.36-4.85-.91-1.38-2.17-2.45-3.79-3.22-1.62-.76-3.48-1.15-5.59-1.15s-4.13.35-5.83,1.06c-1.71.71-3.06,1.73-4.06,3.05-1,1.33-1.5,2.94-1.5,4.83,0,2.4.62,4.21,1.85,5.43,1.24,1.22,3.11,2.1,5.62,2.65l5.02,1.09c1.02.22,1.68.53,1.99.93.31.4.46.8.46,1.2,0,.69-.31,1.25-.93,1.69-.62.44-1.58.65-2.89.65s-2.25-.27-2.94-.82c-.69-.55-1.07-1.29-1.15-2.24h-7.96c0,2.76,1.05,5.01,3.16,6.73,2.11,1.73,4.96,2.59,8.56,2.59,2.36,0,4.45-.37,6.27-1.12,1.82-.74,3.24-1.83,4.25-3.24,1.02-1.42,1.53-3.09,1.53-5.02,0-2.18-.59-3.84-1.77-4.99-1.18-1.15-2.9-1.95-5.15-2.43Z"/>
      <path class="cls-1" d="M303.3,31.9c-.29.98-.96,1.75-2.02,2.29-1.06.55-2.38.82-3.98.82-2.18,0-3.79-.61-4.83-1.83-.72-.84-1.18-2.01-1.4-3.48l19.8-.09v-2.13c0-2.98-.56-5.55-1.69-7.72-1.13-2.16-2.73-3.83-4.8-5.02-2.07-1.18-4.54-1.77-7.42-1.77s-5.15.62-7.25,1.85c-2.11,1.24-3.75,2.94-4.94,5.1-1.18,2.16-1.77,4.66-1.77,7.5s.61,5.28,1.83,7.44c1.22,2.16,2.89,3.86,5.02,5.1,2.13,1.24,4.55,1.85,7.28,1.85,3.74,0,6.87-.9,9.38-2.7,2.51-1.8,4-4.21,4.47-7.23h-7.69ZM293.57,20.61c.89-.54,2.04-.82,3.46-.82,1.71,0,3.05.43,4.04,1.28.98.85,1.47,2.01,1.47,3.46h-11.34c.1-.5.22-.97.38-1.39.44-1.15,1.1-1.99,1.99-2.54Z"/>
    </g>
  </g>
</svg>