<?xml version="1.0" encoding="UTF-8"?>
<svg id="Layer_2" xmlns="http://www.w3.org/2000/svg" viewBox="0 0 159.26 37.16">
  <g id="Layer_1-2" data-name="Layer_1">
    <g id="_Group_">
      <g id="_Group_2">
        <g id="_Group_3">
          <path id="_Path_" d="M154.3,19.74c.05-2.88,1.54-5.56,4.02-7.09-1.54-2.23-4.07-3.57-6.8-3.67-2.88-.3-5.66,1.74-7.09,1.74s-3.72-1.69-6.15-1.64c-3.17.1-6.1,1.89-7.64,4.66-3.27,5.7-.84,14.09,2.33,18.7,1.59,2.28,3.42,4.76,5.85,4.71,2.38-.1,3.22-1.49,6.1-1.49s3.67,1.49,6.1,1.44c2.53-.05,4.12-2.28,5.66-4.56,1.14-1.59,2.03-3.37,2.58-5.26-3.03-1.29-4.96-4.27-4.96-7.54Z"/>
          <path id="_Path_2" d="M149.64,5.95c1.39-1.64,2.08-3.82,1.89-5.95-2.13.2-4.07,1.24-5.46,2.83s-2.08,3.62-1.93,5.75c2.13,0,4.17-.94,5.51-2.63Z"/>
        </g>
      </g>
    </g>
    <g>
      <path d="M0,17.03h1.42v5.32h.05c.29-.42.59-.82.87-1.18l3.37-4.14h1.77l-3.99,4.68,4.3,6.35h-1.68l-3.62-5.41-1.06,1.21v4.2H0v-11.02Z"/>
      <path d="M15.98,24.03c0,2.93-2.04,4.2-3.94,4.2-2.13,0-3.79-1.57-3.79-4.07,0-2.63,1.75-4.19,3.93-4.19s3.81,1.65,3.81,4.06ZM9.72,24.11c0,1.73.98,3.04,2.39,3.04s2.4-1.29,2.4-3.08c0-1.34-.67-3.03-2.37-3.03s-2.42,1.57-2.42,3.06Z"/>
      <path d="M17.8,22.28c0-.83-.03-1.49-.07-2.14h1.26l.06,1.29h.05c.44-.75,1.18-1.46,2.5-1.46,1.06,0,1.88.65,2.22,1.59h.03c.25-.46.57-.79.9-1.03.47-.36.98-.56,1.73-.56,1.06,0,2.62.69,2.62,3.44v4.65h-1.41v-4.47c0-1.54-.57-2.44-1.72-2.44-.83,0-1.46.61-1.72,1.29-.07.21-.12.46-.12.72v4.89h-1.41v-4.74c0-1.26-.56-2.16-1.65-2.16-.88,0-1.55.72-1.78,1.44-.08.2-.11.46-.11.7v4.76h-1.41v-5.77Z"/>
      <path d="M31.45,22.28c0-.83-.03-1.49-.07-2.14h1.26l.06,1.29h.05c.44-.75,1.18-1.46,2.5-1.46,1.06,0,1.88.65,2.22,1.59h.03c.25-.46.57-.79.9-1.03.47-.36.98-.56,1.73-.56,1.06,0,2.62.69,2.62,3.44v4.65h-1.41v-4.47c0-1.54-.57-2.44-1.72-2.44-.83,0-1.46.61-1.72,1.29-.07.21-.12.46-.12.72v4.89h-1.41v-4.74c0-1.26-.56-2.16-1.65-2.16-.88,0-1.55.72-1.78,1.44-.08.2-.11.46-.11.7v4.76h-1.41v-5.77Z"/>
      <path d="M45.89,24.35c.03,1.95,1.26,2.75,2.71,2.75,1.03,0,1.67-.18,2.19-.41l.26,1.03c-.51.23-1.39.51-2.65.51-2.44,0-3.89-1.62-3.89-4.01s1.41-4.25,3.71-4.25c2.6,0,3.27,2.26,3.27,3.71,0,.29-.02.51-.05.67h-5.56ZM50.11,23.32c.02-.9-.38-2.32-2-2.32-1.47,0-2.09,1.32-2.21,2.32h4.2Z"/>
      <path d="M53.29,22.6c0-.93-.02-1.73-.07-2.47h1.26l.07,1.57h.05c.36-1.06,1.24-1.73,2.21-1.73.15,0,.26.02.39.03v1.36c-.15-.03-.29-.03-.49-.03-1.01,0-1.73.75-1.93,1.83-.03.2-.05.44-.05.67v4.22h-1.44v-5.45Z"/>
      <path d="M61.91,26.59c.44.26,1.19.56,1.91.56,1.03,0,1.52-.51,1.52-1.18s-.41-1.05-1.46-1.44c-1.44-.52-2.11-1.29-2.11-2.24,0-1.28,1.05-2.32,2.73-2.32.8,0,1.5.21,1.93.49l-.34,1.05c-.31-.2-.88-.47-1.62-.47-.85,0-1.31.49-1.31,1.08,0,.65.46.95,1.49,1.36,1.36.51,2.08,1.19,2.08,2.37,0,1.41-1.1,2.39-2.94,2.39-.87,0-1.67-.23-2.22-.56l.34-1.08Z"/>
      <path d="M68.58,22.28c0-.83-.02-1.49-.07-2.14h1.28l.08,1.31h.03c.39-.74,1.31-1.47,2.62-1.47,1.1,0,2.8.65,2.8,3.37v4.71h-1.44v-4.56c0-1.28-.47-2.34-1.83-2.34-.93,0-1.67.67-1.93,1.47-.07.18-.1.43-.1.67v4.76h-1.44v-5.77Z"/>
      <path d="M83.22,26.15c0,.69.03,1.36.11,1.9h-1.29l-.11-1h-.05c-.44.62-1.29,1.18-2.42,1.18-1.6,0-2.42-1.13-2.42-2.27,0-1.91,1.7-2.96,4.76-2.94v-.16c0-.64-.18-1.83-1.8-1.82-.75,0-1.52.21-2.08.59l-.33-.96c.65-.41,1.62-.69,2.62-.69,2.42,0,3.01,1.65,3.01,3.22v2.96ZM81.83,24.01c-1.57-.03-3.35.25-3.35,1.78,0,.95.62,1.37,1.34,1.37,1.05,0,1.72-.65,1.95-1.32.05-.16.07-.33.07-.46v-1.37Z"/>
      <path d="M85.55,22.6c0-.93-.02-1.73-.07-2.47h1.26l.06,1.57h.05c.36-1.06,1.24-1.73,2.21-1.73.15,0,.26.02.39.03v1.36c-.15-.03-.29-.03-.49-.03-1.01,0-1.73.75-1.93,1.83-.03.2-.05.44-.05.67v4.22h-1.44v-5.45Z"/>
      <path d="M93.02,18.24v1.9h2.06v1.1h-2.06v4.27c0,.98.28,1.54,1.08,1.54.39,0,.62-.03.83-.1l.07,1.1c-.28.1-.72.2-1.28.2-.67,0-1.21-.23-1.55-.6-.39-.44-.56-1.15-.56-2.08v-4.32h-1.23v-1.1h1.23v-1.47l1.41-.42Z"/>
      <path d="M101.91,18.24v1.9h2.06v1.1h-2.06v4.27c0,.98.28,1.54,1.08,1.54.39,0,.62-.03.83-.1l.07,1.1c-.28.1-.72.2-1.28.2-.67,0-1.21-.23-1.55-.6-.39-.44-.56-1.15-.56-2.08v-4.32h-1.23v-1.1h1.23v-1.47l1.41-.42Z"/>
      <path d="M107.19,17.91c0,.49-.34.88-.92.88-.52,0-.87-.39-.87-.88s.36-.9.9-.9.88.39.88.9ZM105.59,28.05v-7.92h1.44v7.92h-1.44Z"/>
      <path d="M109.42,16.44h1.44v11.61h-1.44v-11.61Z"/>
      <path d="M113.28,16.44h1.44v11.61h-1.44v-11.61Z"/>
    </g>
  </g>
</svg>