<?xml version="1.0" encoding="UTF-8"?>
<svg id="Layer_2" xmlns="http://www.w3.org/2000/svg" xmlns:xlink="http://www.w3.org/1999/xlink" viewBox="0 0 197.33 48.27">
  <defs>
    <style>
      .cls-1 {
        fill: url(#linear-gradient-2);
      }

      .cls-2 {
        fill: url(#linear-gradient-3);
      }

      .cls-3 {
        fill: #5bc9f4;
      }

      .cls-4 {
        fill: url(#linear-gradient);
      }
    </style>
    <linearGradient id="linear-gradient" x1="35.97" y1="-1444.67" x2="-5.27" y2="-1444.67" gradientTransform="translate(0 -1420.19) scale(1 -1)" gradientUnits="userSpaceOnUse">
      <stop offset="0" stop-color="#fee000"/>
      <stop offset=".19" stop-color="#fccf0b"/>
      <stop offset=".55" stop-color="#fab318"/>
      <stop offset=".83" stop-color="#f9a21b"/>
      <stop offset="1" stop-color="#f99b1c"/>
    </linearGradient>
    <linearGradient id="linear-gradient-2" x1="25.26" y1="-1448.49" x2="-13.52" y2="-1487.27" gradientTransform="translate(0 -1420.19) scale(1 -1)" gradientUnits="userSpaceOnUse">
      <stop offset="0" stop-color="#ef4547"/>
      <stop offset="1" stop-color="#c6186d"/>
    </linearGradient>
    <linearGradient id="linear-gradient-3" x1="-13.74" y1="-1401.76" x2="17.93" y2="-1433.43" gradientTransform="translate(0 -1420.19) scale(1 -1)" gradientUnits="userSpaceOnUse">
      <stop offset="0" stop-color="#279e6f"/>
      <stop offset=".32" stop-color="#4dab6d"/>
      <stop offset=".74" stop-color="#6aba6a"/>
      <stop offset="1" stop-color="#74c169"/>
    </linearGradient>
  </defs>
  <g id="Layer_1-2" data-name="Layer_1">
    <g>
      <path d="M99.09,27.46c-4.09,0-7.33,3.07-7.33,7.33s3.24,7.33,7.33,7.33,7.33-3.07,7.33-7.33-3.24-7.33-7.33-7.33ZM99.09,39.06c-2.22,0-4.09-1.88-4.09-4.43s1.88-4.43,4.09-4.43,4.09,1.71,4.09,4.43c0,2.56-1.88,4.43-4.09,4.43ZM83.23,27.46c-4.09,0-7.33,3.07-7.33,7.33s3.24,7.33,7.33,7.33,7.33-3.07,7.33-7.33c0-4.43-3.24-7.33-7.33-7.33ZM83.23,39.06c-2.22,0-4.09-1.88-4.09-4.43s1.88-4.43,4.09-4.43,4.09,1.71,4.09,4.43c0,2.56-1.88,4.43-4.09,4.43ZM64.3,29.68v3.07h7.33c-.17,1.71-.85,3.07-1.71,3.92-1.02,1.02-2.73,2.22-5.63,2.22-4.6,0-8.02-3.58-8.02-8.19s3.58-8.19,8.02-8.19c2.39,0,4.26,1.02,5.63,2.22l2.22-2.22c-1.88-1.71-4.26-3.07-7.67-3.07-6.14,0-11.43,5.12-11.43,11.26s5.29,11.26,11.43,11.26c3.41,0,5.8-1.02,7.85-3.24,2.05-2.05,2.73-4.95,2.73-7.16,0-.68,0-1.36-.17-1.88,0,0-10.57,0-10.57,0ZM141.73,32.06c-.68-1.71-2.39-4.6-6.14-4.6s-6.82,2.9-6.82,7.33c0,4.09,3.07,7.33,7.16,7.33,3.24,0,5.29-2.05,5.97-3.24l-2.39-1.71c-.85,1.19-1.88,2.05-3.58,2.05s-2.73-.68-3.58-2.22l9.72-4.09-.34-.85ZM131.84,34.45c0-2.73,2.22-4.26,3.75-4.26,1.19,0,2.39.68,2.73,1.53l-6.48,2.73ZM123.82,41.44h3.24v-21.32h-3.24v21.32ZM118.71,28.99h0c-.85-.85-2.22-1.71-3.92-1.71-3.58,0-6.99,3.24-6.99,7.33s3.24,7.16,6.99,7.16c1.71,0,3.07-.85,3.75-1.71h.17v1.02c0,2.73-1.53,4.26-3.92,4.26-1.88,0-3.24-1.36-3.58-2.56l-2.73,1.19c.85,1.88,2.9,4.26,6.48,4.26s6.82-2.22,6.82-7.5v-12.96h-3.07s0,1.19,0,1.19ZM114.95,39.06c-2.22,0-4.09-1.88-4.09-4.43s1.88-4.43,4.09-4.43,3.92,1.88,3.92,4.43c0,2.56-1.71,4.43-3.92,4.43ZM156.57,20.13h-7.67v21.32h3.24v-8.02h4.43c3.58,0,6.99-2.56,6.99-6.65,0-4.09-3.41-6.65-6.99-6.65ZM156.74,30.36h-4.6v-7.33h4.6c2.39,0,3.75,2.05,3.75,3.58-.17,1.88-1.54,3.75-3.75,3.75ZM176.35,27.29c-2.39,0-4.78,1.02-5.63,3.24l2.9,1.19c.68-1.19,1.71-1.53,2.9-1.53,1.71,0,3.24,1.02,3.41,2.73v.17c-.51-.34-1.88-.85-3.24-.85-3.07,0-6.14,1.71-6.14,4.78,0,2.9,2.56,4.78,5.29,4.78,2.22,0,3.24-1.02,4.09-2.05h.17v1.71h3.07v-8.19c-.34-3.75-3.24-5.97-6.82-5.97ZM176.01,39.06c-1.02,0-2.56-.51-2.56-1.88,0-1.71,1.88-2.22,3.41-2.22,1.36,0,2.05.34,2.9.68-.34,2.05-2.05,3.41-3.75,3.41ZM193.92,27.8l-3.58,9.21h-.17l-3.75-9.21h-3.41l5.63,12.96-3.24,7.16h3.24l8.7-20.13s-3.41,0-3.41,0ZM165.27,41.44h3.24v-21.32h-3.24v21.32Z"/>
      <g>
        <path class="cls-3" d="M.68,3.07c-.51.68-.68,1.36-.68,2.56v37.52c0,1.02.34,1.88.85,2.39l.17.17,21.15-21.15v-.34L.68,3.07h0Z"/>
        <path class="cls-4" d="M28.99,31.72l-6.99-6.99v-.51l6.99-6.99.17.17,8.36,4.78c2.39,1.36,2.39,3.58,0,4.95l-8.53,4.6h0Z"/>
        <path class="cls-1" d="M29.16,31.55l-7.16-7.16L.68,45.71c.85.85,2.05.85,3.58.17l24.9-14.33"/>
        <path class="cls-2" d="M29.16,17.23L4.26,3.07c-1.53-.85-2.73-.68-3.58.17l21.32,21.15,7.16-7.16Z"/>
      </g>
    </g>
    <g>
      <path d="M53.21,12.45V2.22h1.36v9.04h4.43v1.19h-5.8Z"/>
      <path d="M59.86,12.45l3.92-10.23h1.53l3.92,10.23h-1.53l-1.19-2.73h-4.26l-1.02,2.73h-1.36ZM62.76,8.53h3.41l-1.71-4.6h0l-1.71,4.6Z"/>
      <path d="M70.44,12.45V2.22h3.07c1.53,0,2.9.51,3.75,1.36,1.02,1.02,1.36,2.22,1.36,3.75s-.51,2.73-1.36,3.75c-1.02,1.02-2.22,1.36-3.75,1.36h-3.07ZM71.8,11.26h1.88c1.19,0,2.05-.34,2.73-1.02.68-.68,1.02-1.71,1.02-2.9s-.34-2.22-1.02-2.9-1.71-1.02-2.73-1.02h-1.88v7.85Z"/>
      <path d="M80.67,12.45V2.22h3.07c1.53,0,2.9.51,3.75,1.36,1.02,1.02,1.36,2.22,1.36,3.75s-.51,2.73-1.36,3.75c-.85.85-2.22,1.36-3.75,1.36h-3.07ZM82.04,11.26h1.88c1.19,0,2.05-.34,2.73-1.02.68-.68,1.02-1.71,1.02-2.9s-.34-2.22-1.02-2.9-1.71-1.02-2.73-1.02h-1.88v7.85Z"/>
      <path d="M89.54,12.45l3.92-10.23h1.53l3.92,10.23h-1.71l-1.02-2.73h-4.26l-1.02,2.73h-1.36ZM92.44,8.53h3.41l-1.71-4.6h0l-1.71,4.6Z"/>
      <path d="M103.7,12.45V2.22h1.53l4.95,8.02h0V2.22h1.36v10.23h-1.36l-5.29-8.36h0v8.36h-1.19Z"/>
      <path d="M119.9,3.41h-4.6v3.24h4.26v1.19h-4.26v3.24h4.6v1.36h-5.97V2.22h5.97v1.19Z"/>
      <path d="M121.95,12.45V2.22h3.07c1.53,0,2.9.51,3.75,1.36,1.02,1.02,1.36,2.22,1.36,3.75s-.51,2.73-1.36,3.75c-1.02,1.02-2.22,1.36-3.75,1.36h-3.07ZM123.14,11.26h1.88c1.19,0,2.05-.34,2.73-1.02.68-.68,1.02-1.71,1.02-2.9s-.34-2.22-1.02-2.9-1.71-1.02-2.73-1.02h-1.88v7.85Z"/>
      <path d="M136.78,12.45h-1.36V2.22h3.41c.85,0,1.53.34,2.22.85s1.02,1.36,1.02,2.22-.34,1.53-1.02,2.22c-.68.51-1.36.85-2.22.85h-2.22v4.09h.17ZM136.78,6.99h2.22c.51,0,1.02-.17,1.36-.51.34-.34.51-.85.51-1.19,0-.51-.17-.85-.51-1.19-.34-.34-.85-.51-1.36-.51h-2.22v3.41Z"/>
      <path d="M141.9,12.45l3.58-9.72c-.34-.34-.51-.68-.51-1.19,0-.34.17-.85.51-1.02.34-.34.68-.51,1.02-.51s.68.17,1.02.51.51.68.51,1.02c0,.51-.17.85-.51,1.19l3.58,9.72h-1.53l-1.02-2.73h-4.26l-1.02,2.73h-1.36ZM144.97,8.53h3.41l-1.71-4.6h0l-1.71,4.6ZM146.51,2.22c.17,0,.34,0,.34-.17q.17-.17.17-.34c0-.17,0-.34-.17-.34q-.17-.17-.34-.17c-.17,0-.34,0-.34.17q-.17.17-.17.34c0,.17,0,.34.17.34q.17.17.34.17h0Z"/>
    </g>
  </g>
</svg>