<?xml version="1.0" encoding="UTF-8"?>
<svg id="Layer_2" xmlns="http://www.w3.org/2000/svg" viewBox="0 0 344.72 96.77">
  <defs>
    <style>
      .cls-1 {
        fill: #fff;
      }
    </style>
  </defs>
  <g id="Layer_1-2" data-name="Layer_1">
    <g>
      <path class="cls-1" d="M330.02,52.42c-8.14,0-14.7-6.56-14.7-14.7s6.56-14.7,14.7-14.7,14.7,6.56,14.7,14.7-6.56,14.7-14.7,14.7ZM330.02,25.45c-6.68,0-12.27,5.47-12.27,12.27s5.47,12.27,12.27,12.27,12.27-5.47,12.27-12.27-5.59-12.27-12.27-12.27Z"/>
      <g>
        <polygon class="cls-1" points="57.96 0 42.74 0 12.9 38.71 12.9 0 0 0 0 73.68 12.9 73.68 12.9 58 25.1 42.3 43.34 73.68 58.26 73.68 33.52 31.46 57.96 0"/>
        <path class="cls-1" d="M96.66,24.75c-3.23-1.58-7.09-2.37-11.59-2.37s-8.35.74-11.74,2.22c-3.39,1.48-6.01,3.55-7.86,6.2-1.85,2.66-2.77,5.8-2.77,9.42h10.48c0-2.62.97-4.65,2.92-6.1,1.95-1.44,4.74-2.17,8.37-2.17,2.08,0,3.9.32,5.44.96,1.55.64,2.74,1.65,3.58,3.02.84,1.38,1.26,3.21,1.26,5.49v1.11l-14.92,1.21c-5.91.47-10.47,2.07-13.66,4.79-3.19,2.72-4.79,6.37-4.79,10.94s1.53,8.38,4.59,11.24c3.06,2.86,7.21,4.28,12.45,4.28,3.9,0,7.37-.81,10.43-2.42,3.06-1.61,5.12-3.69,6.2-6.25l.91,7.36h10.79v-30.24c0-4.64-.87-8.52-2.62-11.64-1.75-3.12-4.23-5.48-7.46-7.06ZM94.85,53.52c0,3.83-1.13,6.82-3.38,8.97-2.25,2.15-5.29,3.23-9.12,3.23-2.69,0-4.77-.57-6.25-1.71-1.48-1.14-2.22-2.82-2.22-5.04,0-2.02.81-3.64,2.42-4.89,1.61-1.24,4.33-2.03,8.16-2.37l10.38-.81v2.62Z"/>
        <path class="cls-1" d="M142.53,45.26l-8.97-2.12c-4.3-1.01-6.45-2.89-6.45-5.64,0-1.81.67-3.26,2.02-4.33,1.34-1.07,3.23-1.61,5.64-1.61s4.3.62,5.64,1.86c1.34,1.24,2.02,2.94,2.02,5.09h11.69c-.07-3.23-.89-6.05-2.47-8.47-1.58-2.42-3.78-4.3-6.6-5.64-2.82-1.34-6.08-2.02-9.78-2.02s-7.22.62-10.18,1.86c-2.96,1.24-5.29,3.04-7.01,5.39-1.71,2.35-2.57,5.14-2.57,8.37,0,3.97,1.09,7.07,3.28,9.32,2.18,2.25,5.53,3.88,10.03,4.89l8.97,2.12c2.22.47,3.73,1.18,4.54,2.12.81.94,1.21,2.02,1.21,3.23,0,1.81-.76,3.26-2.27,4.33-1.51,1.08-3.75,1.61-6.7,1.61-2.76,0-4.91-.64-6.45-1.92-1.55-1.28-2.35-2.99-2.42-5.14h-11.69c0,4.91,1.83,8.87,5.49,11.89,3.66,3.02,8.58,4.54,14.77,4.54,4.1,0,7.73-.66,10.89-1.97,3.16-1.31,5.61-3.19,7.36-5.64,1.75-2.45,2.62-5.36,2.62-8.72,0-3.83-1.06-6.79-3.18-8.87-2.12-2.08-5.26-3.59-9.42-4.54Z"/>
        <path class="cls-1" d="M205.07,25.6c-3.46-2.15-7.58-3.23-12.35-3.23-3.7,0-7.09.79-10.18,2.37-3.09,1.58-5.38,3.81-6.85,6.7l-.81-7.56h-11.39v72.88h12.3v-29.74c1.55,2.49,3.85,4.44,6.9,5.85,3.06,1.41,6.43,2.12,10.13,2.12,4.97,0,9.19-1.16,12.65-3.48,3.46-2.32,6.1-5.49,7.91-9.53,1.81-4.03,2.72-8.63,2.72-13.81s-.98-9.78-2.92-13.61c-1.95-3.83-4.65-6.82-8.11-8.97ZM202.1,56.65c-1.08,2.29-2.66,4.08-4.74,5.39-2.08,1.31-4.57,1.97-7.46,1.97s-5.29-.66-7.41-1.97c-2.12-1.31-3.75-3.11-4.89-5.39-1.14-2.28-1.71-4.9-1.71-7.86s.57-5.68,1.71-7.96c1.14-2.28,2.77-4.07,4.89-5.34,2.12-1.28,4.59-1.92,7.41-1.92s5.38.66,7.46,1.97c2.08,1.31,3.66,3.11,4.74,5.39,1.07,2.29,1.61,4.91,1.61,7.86s-.54,5.58-1.61,7.86Z"/>
        <path class="cls-1" d="M255.67,63c-2.18,1.28-4.96,1.92-8.32,1.92-4.57,0-8.01-1.38-10.33-4.13-1.85-2.19-2.96-5.22-3.33-9.08l37.45-.09v-3.73c0-5.24-.99-9.74-2.97-13.51-1.98-3.76-4.79-6.7-8.42-8.82-3.63-2.12-7.96-3.18-13-3.18s-9.14,1.13-12.9,3.38c-3.76,2.25-6.69,5.36-8.77,9.32-2.08,3.97-3.12,8.53-3.12,13.71s1.07,9.63,3.23,13.56c2.15,3.93,5.12,7.02,8.92,9.27,3.8,2.25,8.15,3.38,13.05,3.38,6.52,0,11.91-1.55,16.18-4.64,4.27-3.09,6.94-7.36,8.01-12.8h-11.39c-.67,2.35-2.1,4.17-4.28,5.44ZM239.54,34.27c1.98-1.21,4.42-1.81,7.31-1.81,3.69,0,6.64,1.04,8.82,3.12,2.18,2.08,3.28,4.84,3.28,8.27h-25.04c.25-1.52.63-2.9,1.15-4.13,1.01-2.42,2.5-4.23,4.49-5.44Z"/>
        <path class="cls-1" d="M308.44,23.18c-.87-.07-1.75-.1-2.62-.1-3.97,0-7.19,1.04-9.68,3.12-1.7,1.42-2.96,3.14-3.82,5.13l-.72-7.34h-11.59v49.69h12.3v-24.19c0-4.84,1.28-8.45,3.83-10.84,2.55-2.38,6.08-3.58,10.58-3.58h4.54v-11.39c-1.01-.27-1.95-.44-2.82-.5Z"/>
      </g>
      <polygon class="cls-1" points="333.78 45.61 336.29 45.61 330.86 36.45 336.2 29.68 333.62 29.68 326.53 38.7 326.53 29.68 324.37 29.68 324.37 45.61 326.53 45.61 326.53 41.95 329.43 38.27 333.78 45.61"/>
    </g>
  </g>
</svg>