<?xml version="1.0" encoding="UTF-8"?>
<svg id="Layer_2" xmlns="http://www.w3.org/2000/svg" viewBox="0 0 500 500">
  <defs>
    <style>
      .cls-1 {
        fill: #fff;
      }
    </style>
  </defs>
  <g id="Layer_1-2" data-name="Layer_1">
    <polygon class="cls-1" points="313.83 384.3 356.56 384.3 264.2 228.52 355.06 113.31 311.21 113.31 190.53 266.82 190.53 113.31 153.79 113.31 153.79 384.3 190.53 384.3 190.53 321.94 239.85 259.4 313.83 384.3"/>
    <path class="cls-1" d="M250,500c-66.78,0-129.56-26-176.78-73.22C26,379.56,0,316.78,0,250S26,120.44,73.22,73.22,183.22,0,250,0s129.56,26,176.78,73.22c47.22,47.22,73.22,110,73.22,176.78s-26,129.56-73.22,176.78-110,73.22-176.78,73.22ZM250,20.15C123.26,20.15,20.15,123.26,20.15,250s103.11,229.85,229.85,229.85,229.85-103.11,229.85-229.85S376.74,20.15,250,20.15Z"/>
  </g>
</svg>