<?xml version="1.0" encoding="UTF-8"?>
<svg id="Layer_2" xmlns="http://www.w3.org/2000/svg" viewBox="0 0 53.85 53.85">
  <defs>
    <style>
      .cls-1 {
        fill: #121212;
      }
    </style>
  </defs>
  <g id="Li-Profile">
    <path class="cls-1" d="M53.13,18.43c-.34-1.72-.81-3.41-1.45-5.05-.61-1.56-1.36-3.05-2.29-4.44-1.07-1.6-2.35-3-3.91-4.13-1.24-.91-2.58-1.65-4-2.24-2.5-1.05-5.11-1.7-7.79-2.1C31.66.16,29.6.02,27.54,0h-1.17c-2.39-.03-4.77.17-7.12.56-2.7.45-5.33,1.19-7.81,2.37-1.66.79-3.19,1.78-4.51,3.05-1.01.98-1.88,2.09-2.64,3.3-1.61,2.57-2.64,5.36-3.32,8.29-.23.99-.41,1.98-.55,2.98-.09.61-.16,1.23-.21,1.85-.03.36-.07.71-.1,1.07-.03.33-.03.67-.07,1-.03.23-.04.45-.03.67,0,.5,0,1,0,1.5v1.9c0,.61,0,1.21.08,1.81.08.6.1,1.2.16,1.8.06.61.14,1.22.23,1.83.19,1.21.45,2.4.76,3.59.48,1.84,1.15,3.61,2.02,5.3.8,1.57,1.77,3.03,3,4.31,1.05,1.1,2.23,2.01,3.53,2.79,1.2.72,2.45,1.31,3.75,1.79,1.29.47,2.63.83,3.97,1.13,1.38.31,2.78.53,4.17.7,2.09.26,4.2.27,6.31.26,2.32-.01,4.61-.2,6.89-.59,2.63-.45,5.18-1.18,7.58-2.34,1.4-.67,2.71-1.51,3.9-2.53,1.31-1.13,2.37-2.46,3.29-3.92,1.02-1.62,1.79-3.36,2.4-5.17.91-2.71,1.47-5.49,1.65-8.33.12-1.88.17-3.77.16-5.65-.02-2.31-.27-4.61-.72-6.88ZM32.77,40.99l-6.97-11.98-4.66,5.99v5.99h-4.93V12.86h4.93v14.78l11.39-14.78h5.81l-9.33,12.01,9.45,16.12h-5.7Z"/>
  </g>
</svg>